<svg width="1969" height="486" viewBox="0 0 1969 486" fill="none" xmlns="http://www.w3.org/2000/svg">
<path d="M612.42 107.47C634.458 107.47 651.107 112.86 662.366 123.64C673.865 134.419 679.614 150.11 679.614 170.712C679.614 181.492 676.979 191.313 671.709 200.177C666.678 208.801 659.132 215.628 649.071 220.658C639.249 225.689 626.913 228.324 612.06 228.564L612.779 215.268C620.684 215.268 629.188 216.346 638.291 218.502C647.634 220.658 656.377 224.371 664.522 229.642C672.667 234.912 679.375 242.098 684.645 251.201C689.915 260.065 692.55 271.204 692.55 284.619C692.55 299.232 690.154 311.449 685.363 321.27C680.572 330.853 674.224 338.398 666.319 343.908C658.414 349.418 649.67 353.371 640.088 355.766C630.745 357.922 621.523 359 612.42 359H520.431C515.401 359 511.089 357.323 507.496 353.969C503.902 350.376 502.106 345.944 502.106 340.674V125.796C502.106 120.525 503.902 116.214 507.496 112.86C511.089 109.266 515.401 107.47 520.431 107.47H612.42ZM607.389 142.684H536.601L540.913 136.935V214.19L536.961 210.238H608.108C616.732 209.998 624.277 207.124 630.745 201.614C637.453 195.865 640.807 187.48 640.807 176.461C640.807 165.202 637.812 156.818 631.823 151.308C625.835 145.559 617.69 142.684 607.389 142.684ZM609.904 245.452H538.398L540.913 242.937V327.738L538.039 324.504H612.06C624.517 324.504 634.578 321.27 642.244 314.803C649.91 308.095 653.742 298.034 653.742 284.619C653.742 273.36 651.467 264.976 646.915 259.466C642.364 253.956 636.734 250.243 630.027 248.327C623.319 246.41 616.612 245.452 609.904 245.452ZM888.131 167.118C893.402 167.118 897.714 168.915 901.067 172.508C904.421 175.862 906.098 180.174 906.098 185.444V340.674C906.098 345.944 904.421 350.376 901.067 353.969C897.714 357.323 893.402 359 888.131 359C883.101 359 878.789 357.323 875.196 353.969C871.842 350.376 870.165 345.944 870.165 340.674V314.803L877.711 315.881C877.711 320.192 875.914 324.984 872.321 330.254C868.967 335.524 864.296 340.674 858.307 345.705C852.318 350.496 845.252 354.568 837.107 357.922C828.962 361.036 820.218 362.593 810.876 362.593C794.347 362.593 779.494 358.401 766.319 350.017C753.144 341.393 742.723 329.655 735.057 314.803C727.392 299.95 723.559 283.062 723.559 264.137C723.559 244.733 727.392 227.725 735.057 213.113C742.723 198.26 753.024 186.642 765.96 178.258C779.135 169.873 793.748 165.681 809.798 165.681C820.099 165.681 829.561 167.358 838.185 170.712C847.048 174.065 854.714 178.377 861.182 183.648C867.65 188.918 872.561 194.547 875.914 200.536C879.508 206.285 881.304 211.795 881.304 217.065L870.165 218.143V185.444C870.165 180.414 871.842 176.102 875.196 172.508C878.789 168.915 883.101 167.118 888.131 167.118ZM814.828 329.535C826.087 329.535 836.029 326.66 844.653 320.911C853.277 315.162 859.984 307.376 864.775 297.555C869.566 287.494 871.962 276.354 871.962 264.137C871.962 251.68 869.566 240.541 864.775 230.72C859.984 220.898 853.277 213.112 844.653 207.363C836.029 201.614 826.087 198.739 814.828 198.739C803.809 198.739 793.987 201.614 785.363 207.363C776.979 213.112 770.272 220.898 765.241 230.72C760.45 240.541 758.054 251.68 758.054 264.137C758.054 276.354 760.45 287.494 765.241 297.555C770.272 307.376 776.979 315.162 785.363 320.911C793.987 326.66 803.809 329.535 814.828 329.535ZM1053.82 165.681C1070.82 165.681 1084 169.274 1093.34 176.461C1102.68 183.408 1109.15 192.87 1112.75 204.848C1116.58 216.586 1118.49 229.761 1118.49 244.374V340.674C1118.49 345.944 1116.7 350.376 1113.1 353.969C1109.75 357.323 1105.56 359 1100.53 359C1095.26 359 1090.95 357.323 1087.59 353.969C1084.24 350.376 1082.56 345.944 1082.56 340.674V244.733C1082.56 236.11 1081.36 228.444 1078.97 221.736C1076.57 214.789 1072.38 209.28 1066.39 205.207C1060.64 200.895 1052.5 198.739 1041.96 198.739C1032.14 198.739 1023.51 200.895 1016.09 205.207C1008.66 209.28 1002.79 214.789 998.479 221.736C994.407 228.444 992.37 236.11 992.37 244.733V340.674C992.37 345.944 990.574 350.376 986.981 353.969C983.627 357.323 979.435 359 974.404 359C969.134 359 964.822 357.323 961.468 353.969C958.114 350.376 956.438 345.944 956.438 340.674V188.319C956.438 183.049 958.114 178.737 961.468 175.383C964.822 171.79 969.134 169.993 974.404 169.993C979.435 169.993 983.627 171.79 986.981 175.383C990.574 178.737 992.37 183.049 992.37 188.319V208.441L985.903 212.035C987.579 206.764 990.454 201.494 994.526 196.224C998.838 190.714 1003.99 185.684 1009.98 181.132C1015.97 176.341 1022.67 172.628 1030.1 169.993C1037.53 167.118 1045.43 165.681 1053.82 165.681ZM1288.4 325.942C1293.19 325.942 1297.14 327.499 1300.26 330.613C1303.61 333.727 1305.29 337.68 1305.29 342.471C1305.29 347.022 1303.61 350.975 1300.26 354.329C1297.14 357.443 1293.19 359 1288.4 359H1172.34C1167.31 359 1163.24 357.203 1160.12 353.61C1157.01 349.777 1155.57 346.064 1155.81 342.471C1156.05 339.596 1156.41 337.081 1156.89 334.925C1157.61 332.529 1159.16 329.894 1161.56 327.02L1257.5 199.817V204.129H1177.37C1172.58 204.129 1168.51 202.572 1165.15 199.458C1162.04 196.104 1160.48 192.152 1160.48 187.6C1160.48 182.809 1162.04 178.856 1165.15 175.742C1168.51 172.628 1172.58 171.071 1177.37 171.071H1288.04C1292.59 171.071 1296.43 172.868 1299.54 176.461C1302.89 179.815 1304.33 184.007 1303.85 189.037C1303.85 191.193 1303.49 193.349 1302.77 195.505C1302.3 197.422 1300.98 199.698 1298.82 202.333L1204.32 328.098L1202.88 325.942H1288.4ZM1426.26 362.593C1406.38 362.593 1389.13 358.521 1374.52 350.376C1359.9 341.992 1348.53 330.613 1340.38 316.24C1332.48 301.627 1328.52 284.978 1328.52 266.293C1328.52 245.213 1332.71 227.246 1341.1 212.394C1349.72 197.302 1360.86 185.804 1374.52 177.898C1388.17 169.753 1402.66 165.681 1418 165.681C1429.73 165.681 1440.87 168.077 1451.41 172.868C1461.95 177.419 1471.3 183.887 1479.44 192.271C1487.82 200.416 1494.41 210.118 1499.2 221.377C1503.99 232.396 1506.51 244.494 1506.75 257.669C1506.51 262.46 1504.59 266.413 1501 269.527C1497.41 272.641 1493.21 274.198 1488.42 274.198H1348.64L1340.02 243.655H1475.13L1468.3 250.123V241.14C1467.82 232.756 1465.07 225.449 1460.04 219.221C1455.01 212.753 1448.78 207.842 1441.35 204.489C1433.93 200.895 1426.14 199.099 1418 199.099C1410.81 199.099 1403.86 200.296 1397.15 202.692C1390.69 204.848 1384.82 208.441 1379.55 213.472C1374.52 218.502 1370.44 225.21 1367.33 233.594C1364.46 241.739 1363.02 251.92 1363.02 264.137C1363.02 277.313 1365.77 288.811 1371.28 298.633C1376.79 308.454 1384.22 316.12 1393.56 321.63C1402.9 326.9 1413.2 329.535 1424.46 329.535C1433.33 329.535 1440.63 328.697 1446.38 327.02C1452.13 325.103 1456.92 322.828 1460.76 320.192C1464.59 317.557 1467.94 315.042 1470.82 312.647C1474.41 310.491 1478 309.413 1481.6 309.413C1485.91 309.413 1489.5 310.97 1492.38 314.084C1495.25 316.959 1496.69 320.432 1496.69 324.504C1496.69 329.775 1494.05 334.566 1488.78 338.878C1482.32 345.106 1473.33 350.616 1461.83 355.407C1450.57 360.198 1438.72 362.593 1426.26 362.593ZM1581.14 340.674C1581.14 345.944 1579.47 350.376 1576.11 353.969C1572.76 357.323 1568.45 359 1563.18 359C1558.14 359 1553.83 357.323 1550.24 353.969C1546.89 350.376 1545.21 345.944 1545.21 340.674V186.881C1545.21 181.611 1546.89 177.299 1550.24 173.946C1553.83 170.352 1558.14 168.556 1563.18 168.556C1568.45 168.556 1572.76 170.352 1576.11 173.946C1579.47 177.299 1581.14 181.611 1581.14 186.881V340.674ZM1562.82 144.84C1555.87 144.84 1550.84 143.642 1547.72 141.247C1544.61 138.612 1543.05 134.3 1543.05 128.311V122.562C1543.05 116.573 1544.73 112.381 1548.08 109.985C1551.44 107.59 1556.47 106.392 1563.18 106.392C1570.36 106.392 1575.51 107.709 1578.63 110.344C1581.74 112.74 1583.3 116.812 1583.3 122.562V128.311C1583.3 134.539 1581.62 138.851 1578.27 141.247C1575.15 143.642 1570 144.84 1562.82 144.84ZM1647.44 359C1642.17 359 1637.86 357.323 1634.51 353.969C1631.15 350.376 1629.48 345.944 1629.48 340.674V188.319C1629.48 183.049 1631.15 178.737 1634.51 175.383C1637.86 171.79 1642.17 169.993 1647.44 169.993C1652.47 169.993 1656.67 171.79 1660.02 175.383C1663.61 178.737 1665.41 183.049 1665.41 188.319V228.564L1661.82 213.113C1663.73 206.405 1666.61 200.177 1670.44 194.427C1674.51 188.678 1679.3 183.648 1684.81 179.336C1690.32 175.024 1696.43 171.67 1703.14 169.274C1710.09 166.879 1717.27 165.681 1724.7 165.681C1730.93 165.681 1736.32 167.358 1740.87 170.712C1745.42 174.065 1747.7 178.258 1747.7 183.288C1747.7 189.756 1746.02 194.547 1742.67 197.661C1739.31 200.536 1735.6 201.973 1731.53 201.973C1727.93 201.973 1724.46 201.255 1721.11 199.817C1717.75 198.14 1713.8 197.302 1709.25 197.302C1704.22 197.302 1699.07 198.62 1693.8 201.255C1688.53 203.89 1683.74 207.842 1679.42 213.113C1675.11 218.143 1671.64 224.132 1669 231.079C1666.61 238.026 1665.41 245.811 1665.41 254.435V340.674C1665.41 345.944 1663.61 350.376 1660.02 353.969C1656.67 357.323 1652.47 359 1647.44 359ZM1952.7 264.497C1952.7 283.661 1948.5 300.669 1940.12 315.521C1931.74 330.134 1920.36 341.632 1905.98 350.017C1891.61 358.401 1875.44 362.593 1857.47 362.593C1839.51 362.593 1823.34 358.401 1808.96 350.017C1794.59 341.632 1783.09 330.134 1774.47 315.521C1766.08 300.669 1761.89 283.661 1761.89 264.497C1761.89 245.093 1766.08 228.085 1774.47 213.472C1783.09 198.62 1794.59 187.001 1808.96 178.617C1823.34 169.993 1839.51 165.681 1857.47 165.681C1875.44 165.681 1891.61 169.993 1905.98 178.617C1920.36 187.001 1931.74 198.62 1940.12 213.472C1948.5 228.085 1952.7 245.093 1952.7 264.497ZM1916.76 264.497C1916.76 251.321 1914.13 239.942 1908.86 230.36C1903.59 220.539 1896.4 212.873 1887.3 207.363C1878.44 201.614 1868.49 198.739 1857.47 198.739C1846.45 198.739 1836.39 201.614 1827.29 207.363C1818.19 212.873 1811 220.539 1805.73 230.36C1800.46 239.942 1797.83 251.321 1797.83 264.497C1797.83 277.193 1800.46 288.452 1805.73 298.273C1811 308.095 1818.19 315.761 1827.29 321.27C1836.39 326.78 1846.45 329.535 1857.47 329.535C1868.49 329.535 1878.44 326.78 1887.3 321.27C1896.4 315.761 1903.59 308.095 1908.86 298.273C1914.13 288.452 1916.76 277.193 1916.76 264.497Z" fill="#F2F2F2"/>
<path d="M536.794 407.813C540.046 407.813 543.027 408.186 545.736 408.931C548.446 409.608 550.614 410.557 552.239 411.776C553.933 412.995 554.78 414.316 554.78 415.739C554.78 416.416 554.543 417.094 554.069 417.771C553.594 418.381 552.951 418.686 552.138 418.686C551.325 418.686 550.648 418.482 550.106 418.076C549.631 417.669 549.123 417.195 548.581 416.653C548.107 416.111 547.396 415.603 546.448 415.129C545.567 414.723 544.314 414.35 542.688 414.011C541.062 413.673 539.199 413.503 537.099 413.503C533.306 413.503 529.885 414.452 526.836 416.349C523.788 418.245 521.383 420.819 519.622 424.071C517.861 427.255 516.98 430.845 516.98 434.842C516.98 438.906 517.827 442.564 519.52 445.816C521.214 449.068 523.551 451.642 526.532 453.539C529.512 455.368 533.001 456.282 536.998 456.282C539.707 456.282 541.807 456.045 543.298 455.571C544.788 455.097 546.075 454.555 547.159 453.945C548.446 453.2 549.36 452.489 549.902 451.811C550.512 451.066 551.291 450.693 552.239 450.693C553.12 450.693 553.764 450.964 554.17 451.506C554.644 451.981 554.881 452.624 554.881 453.437C554.881 454.521 554.069 455.74 552.443 457.095C550.885 458.382 548.717 459.534 545.94 460.55C543.162 461.498 539.978 461.972 536.388 461.972C531.307 461.972 526.836 460.787 522.975 458.416C519.182 456.045 516.201 452.827 514.033 448.763C511.933 444.631 510.883 439.99 510.883 434.842C510.883 429.897 511.967 425.392 514.135 421.328C516.303 417.263 519.317 414.011 523.178 411.573C527.107 409.066 531.646 407.813 536.794 407.813ZM605.34 409.337C606.22 409.337 606.932 409.642 607.474 410.252C608.083 410.861 608.388 411.573 608.388 412.386V441.04C608.388 447.747 606.491 452.861 602.698 456.384C598.904 459.906 593.79 461.668 587.354 461.668C580.987 461.668 575.906 459.906 572.113 456.384C568.387 452.861 566.524 447.747 566.524 441.04V412.386C566.524 411.573 566.795 410.861 567.337 410.252C567.947 409.642 568.692 409.337 569.572 409.337C570.453 409.337 571.164 409.642 571.706 410.252C572.316 410.861 572.621 411.573 572.621 412.386V441.04C572.621 445.918 573.908 449.643 576.482 452.218C579.124 454.724 582.748 455.977 587.354 455.977C592.029 455.977 595.687 454.724 598.329 452.218C600.971 449.643 602.291 445.918 602.291 441.04V412.386C602.291 411.573 602.562 410.861 603.104 410.252C603.646 409.642 604.391 409.337 605.34 409.337ZM631.082 457.908C631.082 458.721 630.777 459.432 630.167 460.042C629.558 460.651 628.846 460.956 628.033 460.956C627.153 460.956 626.408 460.651 625.798 460.042C625.256 459.432 624.985 458.721 624.985 457.908V388.812C624.985 387.999 625.29 387.287 625.9 386.678C626.509 386.068 627.221 385.763 628.033 385.763C628.914 385.763 629.625 386.068 630.167 386.678C630.777 387.287 631.082 387.999 631.082 388.812V457.908ZM653.687 457.908C653.687 458.721 653.383 459.432 652.773 460.042C652.163 460.651 651.452 460.956 650.639 460.956C649.758 460.956 649.013 460.651 648.404 460.042C647.862 459.432 647.591 458.721 647.591 457.908V411.166C647.591 410.353 647.862 409.642 648.404 409.032C649.013 408.423 649.758 408.118 650.639 408.118C651.52 408.118 652.231 408.423 652.773 409.032C653.383 409.642 653.687 410.353 653.687 411.166V457.908ZM650.639 401.31C649.216 401.31 648.133 401.005 647.387 400.395C646.71 399.718 646.371 398.77 646.371 397.55V396.534C646.371 395.315 646.744 394.4 647.489 393.791C648.302 393.113 649.386 392.774 650.741 392.774C652.028 392.774 653.01 393.113 653.687 393.791C654.433 394.4 654.805 395.315 654.805 396.534V397.55C654.805 398.77 654.433 399.718 653.687 400.395C653.01 401.005 651.994 401.31 650.639 401.31ZM694.014 407.813C698.485 407.813 702.041 408.728 704.683 410.557C707.393 412.318 709.324 414.757 710.475 417.873C711.695 420.921 712.304 424.308 712.304 428.034V457.908C712.304 458.721 711.999 459.432 711.39 460.042C710.78 460.651 710.069 460.956 709.256 460.956C708.307 460.956 707.562 460.651 707.02 460.042C706.478 459.432 706.207 458.721 706.207 457.908V428.339C706.207 425.629 705.767 423.157 704.886 420.921C704.006 418.686 702.549 416.89 700.517 415.536C698.553 414.181 695.945 413.503 692.693 413.503C689.78 413.503 687.003 414.181 684.361 415.536C681.787 416.89 679.687 418.686 678.061 420.921C676.435 423.157 675.622 425.629 675.622 428.339V457.908C675.622 458.721 675.317 459.432 674.708 460.042C674.098 460.651 673.387 460.956 672.574 460.956C671.625 460.956 670.88 460.651 670.338 460.042C669.796 459.432 669.525 458.721 669.525 457.908V412.386C669.525 411.573 669.796 410.861 670.338 410.252C670.948 409.642 671.693 409.337 672.574 409.337C673.454 409.337 674.166 409.642 674.708 410.252C675.317 410.861 675.622 411.573 675.622 412.386V420.921L673.285 424.579C673.421 422.411 674.098 420.345 675.317 418.381C676.604 416.349 678.23 414.553 680.195 412.995C682.159 411.37 684.327 410.116 686.698 409.236C689.137 408.287 691.575 407.813 694.014 407.813ZM770.846 409.032C771.726 409.032 772.437 409.337 772.979 409.947C773.589 410.557 773.894 411.302 773.894 412.182V457.908C773.894 458.721 773.589 459.432 772.979 460.042C772.37 460.651 771.658 460.956 770.846 460.956C769.965 460.956 769.22 460.651 768.61 460.042C768.068 459.432 767.797 458.721 767.797 457.908V445.816L769.525 445.003C769.525 446.9 768.983 448.831 767.899 450.795C766.883 452.76 765.46 454.589 763.631 456.282C761.802 457.976 759.634 459.364 757.128 460.448C754.689 461.464 752.047 461.972 749.202 461.972C744.596 461.972 740.463 460.787 736.805 458.416C733.215 456.045 730.37 452.793 728.27 448.661C726.238 444.529 725.222 439.889 725.222 434.74C725.222 429.456 726.272 424.816 728.372 420.819C730.472 416.755 733.317 413.571 736.907 411.268C740.497 408.965 744.562 407.813 749.101 407.813C752.013 407.813 754.723 408.321 757.23 409.337C759.804 410.353 762.039 411.742 763.936 413.503C765.833 415.265 767.289 417.297 768.305 419.6C769.389 421.836 769.931 424.173 769.931 426.611L767.797 425.087V412.182C767.797 411.302 768.068 410.557 768.61 409.947C769.22 409.337 769.965 409.032 770.846 409.032ZM749.71 456.282C753.301 456.282 756.484 455.368 759.262 453.539C762.039 451.642 764.207 449.068 765.765 445.816C767.391 442.497 768.204 438.805 768.204 434.74C768.204 430.744 767.391 427.153 765.765 423.969C764.207 420.786 762.039 418.245 759.262 416.349C756.484 414.452 753.301 413.503 749.71 413.503C746.188 413.503 743.004 414.418 740.159 416.247C737.381 418.076 735.18 420.582 733.554 423.766C731.996 426.95 731.217 430.608 731.217 434.74C731.217 438.805 731.996 442.497 733.554 445.816C735.18 449.068 737.381 451.642 740.159 453.539C742.936 455.368 746.12 456.282 749.71 456.282ZM748.999 404.866C748.66 404.866 748.288 404.697 747.881 404.358C747.542 403.952 747.373 403.511 747.373 403.037C747.373 402.631 747.542 402.157 747.881 401.615L754.08 391.962C754.418 391.42 754.859 390.912 755.4 390.437C756.01 389.963 756.721 389.726 757.534 389.726C758.55 389.726 759.363 389.997 759.973 390.539C760.583 391.081 760.854 391.86 760.786 392.876C760.786 393.35 760.684 393.791 760.481 394.197C760.346 394.536 760.109 394.874 759.77 395.213L752.149 403.241C751.742 403.715 751.268 404.121 750.726 404.46C750.184 404.731 749.609 404.866 748.999 404.866ZM792.941 460.956C791.992 460.956 791.247 460.651 790.705 460.042C790.163 459.432 789.892 458.721 789.892 457.908V412.386C789.892 411.573 790.163 410.861 790.705 410.252C791.315 409.642 792.06 409.337 792.941 409.337C793.821 409.337 794.533 409.642 795.075 410.252C795.684 410.861 795.989 411.573 795.989 412.386V427.627L794.465 427.932C794.668 425.561 795.244 423.224 796.192 420.921C797.208 418.55 798.563 416.382 800.257 414.418C801.95 412.453 803.949 410.861 806.252 409.642C808.623 408.423 811.265 407.813 814.178 407.813C815.397 407.813 816.582 408.084 817.734 408.626C818.886 409.1 819.461 409.913 819.461 411.065C819.461 412.081 819.19 412.86 818.649 413.402C818.107 413.944 817.463 414.215 816.718 414.215C816.108 414.215 815.431 414.045 814.686 413.707C814.008 413.368 813.094 413.199 811.942 413.199C810.045 413.199 808.149 413.774 806.252 414.926C804.355 416.01 802.628 417.5 801.07 419.397C799.512 421.294 798.258 423.428 797.31 425.798C796.429 428.102 795.989 430.439 795.989 432.81V457.908C795.989 458.721 795.684 459.432 795.075 460.042C794.465 460.651 793.754 460.956 792.941 460.956ZM834.883 457.908C834.883 458.721 834.578 459.432 833.968 460.042C833.359 460.651 832.647 460.956 831.834 460.956C830.954 460.956 830.209 460.651 829.599 460.042C829.057 459.432 828.786 458.721 828.786 457.908V411.166C828.786 410.353 829.057 409.642 829.599 409.032C830.209 408.423 830.954 408.118 831.834 408.118C832.715 408.118 833.426 408.423 833.968 409.032C834.578 409.642 834.883 410.353 834.883 411.166V457.908ZM831.834 401.31C830.412 401.31 829.328 401.005 828.583 400.395C827.905 399.718 827.567 398.77 827.567 397.55V396.534C827.567 395.315 827.939 394.4 828.684 393.791C829.497 393.113 830.581 392.774 831.936 392.774C833.223 392.774 834.205 393.113 834.883 393.791C835.628 394.4 836 395.315 836 396.534V397.55C836 398.77 835.628 399.718 834.883 400.395C834.205 401.005 833.189 401.31 831.834 401.31ZM893.296 409.032C894.177 409.032 894.888 409.337 895.43 409.947C896.04 410.557 896.345 411.302 896.345 412.182V457.908C896.345 458.721 896.04 459.432 895.43 460.042C894.82 460.651 894.109 460.956 893.296 460.956C892.416 460.956 891.67 460.651 891.061 460.042C890.519 459.432 890.248 458.721 890.248 457.908V445.816L891.975 445.003C891.975 446.9 891.433 448.831 890.35 450.795C889.333 452.76 887.911 454.589 886.082 456.282C884.253 457.976 882.085 459.364 879.579 460.448C877.14 461.464 874.498 461.972 871.653 461.972C867.046 461.972 862.914 460.787 859.256 458.416C855.666 456.045 852.821 452.793 850.721 448.661C848.688 444.529 847.672 439.889 847.672 434.74C847.672 429.456 848.722 424.816 850.822 420.819C852.922 416.755 855.767 413.571 859.358 411.268C862.948 408.965 867.013 407.813 871.551 407.813C874.464 407.813 877.174 408.321 879.68 409.337C882.254 410.353 884.49 411.742 886.387 413.503C888.283 415.265 889.74 417.297 890.756 419.6C891.84 421.836 892.382 424.173 892.382 426.611L890.248 425.087V412.182C890.248 411.302 890.519 410.557 891.061 409.947C891.67 409.337 892.416 409.032 893.296 409.032ZM872.161 456.282C875.751 456.282 878.935 455.368 881.712 453.539C884.49 451.642 886.658 449.068 888.216 445.816C889.841 442.497 890.654 438.805 890.654 434.74C890.654 430.744 889.841 427.153 888.216 423.969C886.658 420.786 884.49 418.245 881.712 416.349C878.935 414.452 875.751 413.503 872.161 413.503C868.638 413.503 865.455 414.418 862.609 416.247C859.832 418.076 857.63 420.582 856.005 423.766C854.447 426.95 853.667 430.608 853.667 434.74C853.667 438.805 854.447 442.497 856.005 445.816C857.63 449.068 859.832 451.642 862.609 453.539C865.387 455.368 868.571 456.282 872.161 456.282ZM982.703 409.032C983.584 409.032 984.295 409.337 984.837 409.947C985.447 410.557 985.752 411.302 985.752 412.182V457.908C985.752 458.721 985.447 459.432 984.837 460.042C984.227 460.651 983.516 460.956 982.703 460.956C981.823 460.956 981.077 460.651 980.468 460.042C979.926 459.432 979.655 458.721 979.655 457.908V445.816L981.382 445.003C981.382 446.9 980.84 448.831 979.756 450.795C978.74 452.76 977.318 454.589 975.489 456.282C973.66 457.976 971.492 459.364 968.986 460.448C966.547 461.464 963.905 461.972 961.06 461.972C956.453 461.972 952.321 460.787 948.663 458.416C945.073 456.045 942.228 452.793 940.128 448.661C938.095 444.529 937.079 439.889 937.079 434.74C937.079 429.456 938.129 424.816 940.229 420.819C942.329 416.755 945.174 413.571 948.765 411.268C952.355 408.965 956.419 407.813 960.958 407.813C963.871 407.813 966.581 408.321 969.087 409.337C971.661 410.353 973.897 411.742 975.794 413.503C977.69 415.265 979.147 417.297 980.163 419.6C981.247 421.836 981.789 424.173 981.789 426.611L979.655 425.087V412.182C979.655 411.302 979.926 410.557 980.468 409.947C981.077 409.337 981.823 409.032 982.703 409.032ZM961.568 456.282C965.158 456.282 968.342 455.368 971.119 453.539C973.897 451.642 976.064 449.068 977.623 445.816C979.248 442.497 980.061 438.805 980.061 434.74C980.061 430.744 979.248 427.153 977.623 423.969C976.064 420.786 973.897 418.245 971.119 416.349C968.342 414.452 965.158 413.503 961.568 413.503C958.045 413.503 954.861 414.418 952.016 416.247C949.239 418.076 947.037 420.582 945.411 423.766C943.853 426.95 943.074 430.608 943.074 434.74C943.074 438.805 943.853 442.497 945.411 445.816C947.037 449.068 949.239 451.642 952.016 453.539C954.794 455.368 957.978 456.282 961.568 456.282ZM1025.12 408.626C1029.32 408.626 1032.91 409.744 1035.89 411.979C1038.87 414.147 1040.9 417.399 1041.99 421.734L1040.57 422.14L1041.18 420.311C1042.06 418.279 1043.51 416.382 1045.54 414.621C1047.64 412.792 1050.02 411.336 1052.66 410.252C1055.3 409.168 1057.98 408.626 1060.68 408.626C1064.95 408.626 1068.37 409.54 1070.95 411.37C1073.59 413.199 1075.49 415.671 1076.64 418.787C1077.86 421.836 1078.47 425.29 1078.47 429.152V457.908C1078.47 458.721 1078.16 459.432 1077.55 460.042C1077.01 460.651 1076.3 460.956 1075.42 460.956C1074.54 460.956 1073.79 460.651 1073.18 460.042C1072.64 459.432 1072.37 458.721 1072.37 457.908V429.456C1072.37 426.679 1071.93 424.139 1071.05 421.836C1070.17 419.532 1068.78 417.703 1066.88 416.349C1064.99 414.994 1062.45 414.316 1059.26 414.316C1056.49 414.316 1053.81 414.994 1051.24 416.349C1048.73 417.703 1046.66 419.532 1045.04 421.836C1043.48 424.139 1042.7 426.679 1042.7 429.456V457.908C1042.7 458.721 1042.39 459.432 1041.79 460.042C1041.24 460.651 1040.53 460.956 1039.65 460.956C1038.77 460.956 1038.03 460.651 1037.42 460.042C1036.87 459.432 1036.6 458.721 1036.6 457.908V429.152C1036.6 426.374 1036.2 423.868 1035.38 421.632C1034.57 419.397 1033.25 417.636 1031.42 416.349C1029.59 414.994 1027.12 414.316 1024 414.316C1021.23 414.316 1018.58 414.994 1016.08 416.349C1013.64 417.636 1011.64 419.397 1010.08 421.632C1008.59 423.868 1007.85 426.374 1007.85 429.152V457.908C1007.85 458.721 1007.54 459.432 1006.93 460.042C1006.32 460.651 1005.61 460.956 1004.8 460.956C1003.85 460.956 1003.1 460.651 1002.56 460.042C1002.02 459.432 1001.75 458.721 1001.75 457.908V412.386C1001.75 411.573 1002.02 410.861 1002.56 410.252C1003.17 409.642 1003.92 409.337 1004.8 409.337C1005.68 409.337 1006.39 409.642 1006.93 410.252C1007.54 410.861 1007.85 411.573 1007.85 412.386V421.836L1005.1 425.595C1005.31 423.563 1005.95 421.531 1007.03 419.498C1008.19 417.466 1009.68 415.637 1011.5 414.011C1013.33 412.386 1015.4 411.099 1017.7 410.15C1020.07 409.134 1022.55 408.626 1025.12 408.626ZM1137.01 409.032C1137.89 409.032 1138.6 409.337 1139.14 409.947C1139.75 410.557 1140.06 411.302 1140.06 412.182V457.908C1140.06 458.721 1139.75 459.432 1139.14 460.042C1138.53 460.651 1137.82 460.956 1137.01 460.956C1136.13 460.956 1135.38 460.651 1134.77 460.042C1134.23 459.432 1133.96 458.721 1133.96 457.908V445.816L1135.69 445.003C1135.69 446.9 1135.14 448.831 1134.06 450.795C1133.04 452.76 1131.62 454.589 1129.79 456.282C1127.96 457.976 1125.8 459.364 1123.29 460.448C1120.85 461.464 1118.21 461.972 1115.36 461.972C1110.76 461.972 1106.62 460.787 1102.97 458.416C1099.38 456.045 1096.53 452.793 1094.43 448.661C1092.4 444.529 1091.38 439.889 1091.38 434.74C1091.38 429.456 1092.43 424.816 1094.53 420.819C1096.63 416.755 1099.48 413.571 1103.07 411.268C1106.66 408.965 1110.72 407.813 1115.26 407.813C1118.17 407.813 1120.88 408.321 1123.39 409.337C1125.97 410.353 1128.2 411.742 1130.1 413.503C1131.99 415.265 1133.45 417.297 1134.47 419.6C1135.55 421.836 1136.09 424.173 1136.09 426.611L1133.96 425.087V412.182C1133.96 411.302 1134.23 410.557 1134.77 409.947C1135.38 409.337 1136.13 409.032 1137.01 409.032ZM1115.87 456.282C1119.46 456.282 1122.65 455.368 1125.42 453.539C1128.2 451.642 1130.37 449.068 1131.93 445.816C1133.55 442.497 1134.36 438.805 1134.36 434.74C1134.36 430.744 1133.55 427.153 1131.93 423.969C1130.37 420.786 1128.2 418.245 1125.42 416.349C1122.65 414.452 1119.46 413.503 1115.87 413.503C1112.35 413.503 1109.17 414.418 1106.32 416.247C1103.54 418.076 1101.34 420.582 1099.72 423.766C1098.16 426.95 1097.38 430.608 1097.38 434.74C1097.38 438.805 1098.16 442.497 1099.72 445.816C1101.34 449.068 1103.54 451.642 1106.32 453.539C1109.1 455.368 1112.28 456.282 1115.87 456.282ZM1188.57 455.266C1189.38 455.266 1190.06 455.571 1190.6 456.181C1191.21 456.722 1191.52 457.366 1191.52 458.111C1191.52 458.924 1191.21 459.601 1190.6 460.143C1190.06 460.685 1189.38 460.956 1188.57 460.956H1155.55C1154.66 460.956 1153.95 460.618 1153.41 459.94C1152.87 459.263 1152.6 458.619 1152.6 458.01C1152.6 457.603 1152.67 457.231 1152.8 456.892C1152.94 456.485 1153.17 456.079 1153.51 455.672L1184.3 413.097L1184.71 414.011H1158.09C1157.27 414.011 1156.56 413.74 1155.95 413.199C1155.41 412.589 1155.14 411.911 1155.14 411.166C1155.14 410.353 1155.41 409.676 1155.95 409.134C1156.56 408.592 1157.27 408.321 1158.09 408.321H1189.28C1190.03 408.321 1190.67 408.626 1191.21 409.236C1191.82 409.845 1192.13 410.557 1192.13 411.37C1192.13 411.776 1192.06 412.149 1191.92 412.487C1191.79 412.826 1191.58 413.199 1191.31 413.605L1160.73 455.774L1159.51 455.266H1188.57ZM1252.05 434.944C1252.05 440.092 1250.93 444.732 1248.7 448.864C1246.46 452.929 1243.41 456.147 1239.55 458.518C1235.69 460.821 1231.29 461.972 1226.34 461.972C1221.53 461.972 1217.16 460.821 1213.24 458.518C1209.37 456.147 1206.29 452.929 1203.99 448.864C1201.75 444.732 1200.64 440.092 1200.64 434.944C1200.64 429.727 1201.75 425.087 1203.99 421.023C1206.29 416.958 1209.37 413.74 1213.24 411.37C1217.16 408.999 1221.53 407.813 1226.34 407.813C1231.29 407.813 1235.69 408.999 1239.55 411.37C1243.41 413.74 1246.46 416.958 1248.7 421.023C1250.93 425.087 1252.05 429.727 1252.05 434.944ZM1245.96 434.944C1245.96 430.811 1245.11 427.153 1243.41 423.969C1241.72 420.718 1239.38 418.178 1236.4 416.349C1233.49 414.452 1230.14 413.503 1226.34 413.503C1222.69 413.503 1219.37 414.452 1216.39 416.349C1213.41 418.178 1211.03 420.718 1209.27 423.969C1207.58 427.153 1206.73 430.811 1206.73 434.944C1206.73 439.076 1207.58 442.734 1209.27 445.918C1211.03 449.102 1213.41 451.642 1216.39 453.539C1219.37 455.368 1222.69 456.282 1226.34 456.282C1230.14 456.282 1233.49 455.368 1236.4 453.539C1239.38 451.642 1241.72 449.102 1243.41 445.918C1245.11 442.734 1245.96 439.076 1245.96 434.944ZM1289.5 407.813C1293.97 407.813 1297.52 408.728 1300.17 410.557C1302.88 412.318 1304.81 414.757 1305.96 417.873C1307.18 420.921 1307.79 424.308 1307.79 428.034V457.908C1307.79 458.721 1307.48 459.432 1306.87 460.042C1306.26 460.651 1305.55 460.956 1304.74 460.956C1303.79 460.956 1303.05 460.651 1302.5 460.042C1301.96 459.432 1301.69 458.721 1301.69 457.908V428.339C1301.69 425.629 1301.25 423.157 1300.37 420.921C1299.49 418.686 1298.03 416.89 1296 415.536C1294.04 414.181 1291.43 413.503 1288.18 413.503C1285.26 413.503 1282.49 414.181 1279.84 415.536C1277.27 416.89 1275.17 418.686 1273.54 420.921C1271.92 423.157 1271.11 425.629 1271.11 428.339V457.908C1271.11 458.721 1270.8 459.432 1270.19 460.042C1269.58 460.651 1268.87 460.956 1268.06 460.956C1267.11 460.956 1266.36 460.651 1265.82 460.042C1265.28 459.432 1265.01 458.721 1265.01 457.908V412.386C1265.01 411.573 1265.28 410.861 1265.82 410.252C1266.43 409.642 1267.18 409.337 1268.06 409.337C1268.94 409.337 1269.65 409.642 1270.19 410.252C1270.8 410.861 1271.11 411.573 1271.11 412.386V420.921L1268.77 424.579C1268.9 422.411 1269.58 420.345 1270.8 418.381C1272.09 416.349 1273.71 414.553 1275.68 412.995C1277.64 411.37 1279.81 410.116 1282.18 409.236C1284.62 408.287 1287.06 407.813 1289.5 407.813ZM1347.23 461.972C1342.01 461.972 1337.4 460.855 1333.41 458.619C1329.41 456.384 1326.29 453.268 1324.06 449.271C1321.82 445.274 1320.71 440.6 1320.71 435.248C1320.71 429.49 1321.82 424.579 1324.06 420.515C1326.36 416.45 1329.31 413.334 1332.9 411.166C1336.56 408.931 1340.42 407.813 1344.48 407.813C1347.46 407.813 1350.34 408.355 1353.12 409.439C1355.96 410.455 1358.47 412.013 1360.64 414.113C1362.87 416.145 1364.64 418.652 1365.92 421.632C1367.28 424.613 1368.02 428.068 1368.16 431.997C1368.09 432.81 1367.75 433.521 1367.14 434.131C1366.53 434.673 1365.82 434.944 1365.01 434.944H1324.26L1323.04 429.456H1363.08L1361.76 430.676V428.644C1361.49 425.46 1360.47 422.75 1358.71 420.515C1356.95 418.279 1354.81 416.586 1352.31 415.434C1349.8 414.282 1347.19 413.707 1344.48 413.707C1342.45 413.707 1340.35 414.113 1338.18 414.926C1336.08 415.739 1334.15 417.026 1332.39 418.787C1330.7 420.481 1329.31 422.682 1328.22 425.392C1327.14 428.034 1326.6 431.184 1326.6 434.842C1326.6 438.839 1327.41 442.463 1329.04 445.714C1330.66 448.966 1333 451.54 1336.05 453.437C1339.16 455.334 1342.86 456.282 1347.12 456.282C1349.5 456.282 1351.63 455.943 1353.53 455.266C1355.42 454.589 1357.08 453.708 1358.5 452.624C1359.93 451.472 1361.11 450.287 1362.06 449.068C1362.81 448.458 1363.55 448.153 1364.3 448.153C1364.97 448.153 1365.55 448.424 1366.02 448.966C1366.57 449.508 1366.84 450.118 1366.84 450.795C1366.84 451.608 1366.5 452.319 1365.82 452.929C1363.79 455.368 1361.15 457.501 1357.9 459.331C1354.64 461.092 1351.09 461.972 1347.23 461.972ZM1405.7 407.813C1410.17 407.813 1413.72 408.728 1416.37 410.557C1419.08 412.318 1421.01 414.757 1422.16 417.873C1423.38 420.921 1423.99 424.308 1423.99 428.034V457.908C1423.99 458.721 1423.68 459.432 1423.07 460.042C1422.46 460.651 1421.75 460.956 1420.94 460.956C1419.99 460.956 1419.25 460.651 1418.7 460.042C1418.16 459.432 1417.89 458.721 1417.89 457.908V428.339C1417.89 425.629 1417.45 423.157 1416.57 420.921C1415.69 418.686 1414.23 416.89 1412.2 415.536C1410.24 414.181 1407.63 413.503 1404.38 413.503C1401.46 413.503 1398.69 414.181 1396.04 415.536C1393.47 416.89 1391.37 418.686 1389.74 420.921C1388.12 423.157 1387.3 425.629 1387.3 428.339V457.908C1387.3 458.721 1387 459.432 1386.39 460.042C1385.78 460.651 1385.07 460.956 1384.26 460.956C1383.31 460.956 1382.56 460.651 1382.02 460.042C1381.48 459.432 1381.21 458.721 1381.21 457.908V412.386C1381.21 411.573 1381.48 410.861 1382.02 410.252C1382.63 409.642 1383.38 409.337 1384.26 409.337C1385.14 409.337 1385.85 409.642 1386.39 410.252C1387 410.861 1387.3 411.573 1387.3 412.386V420.921L1384.97 424.579C1385.1 422.411 1385.78 420.345 1387 418.381C1388.29 416.349 1389.91 414.553 1391.88 412.995C1393.84 411.37 1396.01 410.116 1398.38 409.236C1400.82 408.287 1403.26 407.813 1405.7 407.813ZM1437.01 452.726C1436.46 451.913 1436.19 451.134 1436.19 450.389C1436.26 449.576 1436.7 448.932 1437.51 448.458C1438.06 447.984 1438.67 447.781 1439.34 447.848C1440.09 447.916 1440.77 448.255 1441.38 448.864C1443.2 451.235 1445.41 453.166 1447.98 454.656C1450.62 456.079 1453.74 456.79 1457.33 456.79C1459.23 456.79 1461.09 456.485 1462.92 455.876C1464.81 455.198 1466.37 454.216 1467.59 452.929C1468.81 451.574 1469.42 449.881 1469.42 447.848C1469.42 445.748 1468.81 444.055 1467.59 442.768C1466.37 441.481 1464.78 440.464 1462.82 439.719C1460.92 438.974 1458.89 438.331 1456.72 437.789C1454.42 437.179 1452.18 436.502 1450.01 435.756C1447.84 434.944 1445.91 433.961 1444.22 432.81C1442.59 431.59 1441.27 430.134 1440.26 428.44C1439.24 426.747 1438.73 424.681 1438.73 422.242C1438.73 419.397 1439.51 416.89 1441.07 414.723C1442.63 412.555 1444.73 410.861 1447.37 409.642C1450.08 408.423 1453.13 407.813 1456.52 407.813C1458.21 407.813 1460.04 408.05 1462 408.524C1463.97 408.931 1465.9 409.642 1467.79 410.658C1469.69 411.674 1471.38 413.063 1472.88 414.824C1473.48 415.434 1473.79 416.145 1473.79 416.958C1473.79 417.703 1473.45 418.381 1472.77 418.99C1472.23 419.397 1471.59 419.6 1470.84 419.6C1470.17 419.6 1469.59 419.329 1469.12 418.787C1467.49 416.958 1465.56 415.569 1463.32 414.621C1461.09 413.673 1458.68 413.199 1456.11 413.199C1454.14 413.199 1452.28 413.537 1450.52 414.215C1448.83 414.824 1447.4 415.773 1446.25 417.06C1445.1 418.347 1444.53 420.04 1444.53 422.14C1444.66 424.105 1445.34 425.697 1446.56 426.916C1447.84 428.136 1449.5 429.152 1451.54 429.965C1453.64 430.777 1455.97 431.523 1458.55 432.2C1460.72 432.742 1462.78 433.386 1464.75 434.131C1466.78 434.876 1468.54 435.824 1470.03 436.976C1471.59 438.06 1472.81 439.448 1473.69 441.142C1474.64 442.835 1475.11 444.969 1475.11 447.543C1475.11 450.524 1474.26 453.098 1472.57 455.266C1470.94 457.434 1468.74 459.093 1465.97 460.245C1463.19 461.397 1460.11 461.972 1456.72 461.972C1453.06 461.972 1449.5 461.261 1446.05 459.839C1442.66 458.416 1439.65 456.045 1437.01 452.726ZM1511.06 461.972C1505.84 461.972 1501.23 460.855 1497.24 458.619C1493.24 456.384 1490.12 453.268 1487.89 449.271C1485.65 445.274 1484.54 440.6 1484.54 435.248C1484.54 429.49 1485.65 424.579 1487.89 420.515C1490.19 416.45 1493.14 413.334 1496.73 411.166C1500.39 408.931 1504.25 407.813 1508.31 407.813C1511.29 407.813 1514.17 408.355 1516.95 409.439C1519.79 410.455 1522.3 412.013 1524.47 414.113C1526.7 416.145 1528.47 418.652 1529.75 421.632C1531.11 424.613 1531.85 428.068 1531.99 431.997C1531.92 432.81 1531.58 433.521 1530.97 434.131C1530.36 434.673 1529.65 434.944 1528.84 434.944H1488.09L1486.87 429.456H1526.91L1525.59 430.676V428.644C1525.32 425.46 1524.3 422.75 1522.54 420.515C1520.78 418.279 1518.64 416.586 1516.14 415.434C1513.63 414.282 1511.02 413.707 1508.31 413.707C1506.28 413.707 1504.18 414.113 1502.01 414.926C1499.91 415.739 1497.98 417.026 1496.22 418.787C1494.53 420.481 1493.14 422.682 1492.05 425.392C1490.97 428.034 1490.43 431.184 1490.43 434.842C1490.43 438.839 1491.24 442.463 1492.87 445.714C1494.49 448.966 1496.83 451.54 1499.88 453.437C1502.99 455.334 1506.69 456.282 1510.95 456.282C1513.33 456.282 1515.46 455.943 1517.36 455.266C1519.25 454.589 1520.91 453.708 1522.33 452.624C1523.76 451.472 1524.94 450.287 1525.89 449.068C1526.64 448.458 1527.38 448.153 1528.13 448.153C1528.8 448.153 1529.38 448.424 1529.85 448.966C1530.4 449.508 1530.67 450.118 1530.67 450.795C1530.67 451.608 1530.33 452.319 1529.65 452.929C1527.62 455.368 1524.98 457.501 1521.73 459.331C1518.47 461.092 1514.92 461.972 1511.06 461.972Z" fill="#F2F2F2"/>
<g clip-path="url(#clip0_132_406)">
<mask id="mask0_132_406" style="mask-type:luminance" maskUnits="userSpaceOnUse" x="0" y="98" width="462" height="368">
<path d="M461.603 98H0V466H461.603V98Z" fill="white"/>
</mask>
<g mask="url(#mask0_132_406)">
<path fill-rule="evenodd" clip-rule="evenodd" d="M105.784 98.6411C204.516 98.6411 303.247 98.6411 401.979 98.6411C412.813 101.916 414.949 108.113 408.39 117.233C382.321 117.875 356.25 118.089 330.174 117.875C319.061 117.875 307.949 117.875 296.836 117.875C235.716 117.875 174.597 117.875 113.477 117.875C111.777 136.902 111.777 156.135 113.477 175.575C114.256 175.416 114.683 174.989 114.76 174.293C147.244 155.918 181.864 143.31 218.62 136.467C266.932 131.428 311.81 141.471 353.254 166.599C375.1 179.809 394.12 196.478 410.314 216.606C413.018 222.096 412.804 227.439 409.672 232.634C402.109 233.352 395.697 230.788 390.439 224.941C361.616 209.064 330.842 198.806 298.118 194.167C283.606 192.289 269.075 190.58 254.523 189.038C247.697 183.114 247.697 177.132 254.523 171.087C262.221 170.702 269.914 170.915 277.603 171.728C298.662 174.241 319.605 177.874 340.432 182.627C336.06 179.586 331.358 177.235 326.327 175.575C309.938 166.549 292.414 160.565 273.756 157.624C249.857 152.104 225.921 152.745 201.951 159.547C169.175 169.948 137.547 183.198 107.066 199.296C101.079 201.268 97.0186 199.345 94.885 193.526C94.0297 164.89 94.0297 136.253 94.885 107.617C97.1994 102.946 100.832 99.9541 105.784 98.6411Z" fill="#F2F2F2"/>
<path fill-rule="evenodd" clip-rule="evenodd" d="M113.477 119.157C113.477 118.73 113.477 118.302 113.477 117.875C174.597 117.875 235.716 117.875 296.836 117.875C296.836 120.012 296.836 115.737 296.836 117.875C295.554 117.875 295.554 116.592 295.554 117.875C234.862 117.875 174.169 119.157 113.477 119.157Z" fill="#F2F2F2"/>
<path fill-rule="evenodd" clip-rule="evenodd" d="M113.477 117.875C113.477 118.302 113.477 118.73 113.477 119.157C113.055 137.762 113.482 156.14 114.759 174.293C114.683 174.989 114.256 175.416 113.477 175.575C111.777 156.135 111.777 136.902 113.477 117.875Z" fill="#F2F2F2"/>
<path fill-rule="evenodd" clip-rule="evenodd" d="M59.6236 98.6411C64.8731 97.6218 68.9339 99.331 71.8048 103.77C72.6601 137.963 72.6601 172.155 71.8048 206.348C67.276 213.773 61.7201 214.628 55.1358 208.913C54.2806 173.866 54.2806 138.817 55.1358 103.77C56.9002 102.225 58.3952 100.516 59.6236 98.6411Z" fill="#F2B02F"/>
<path fill-rule="evenodd" clip-rule="evenodd" d="M296.836 117.875C307.949 117.875 319.061 117.875 330.174 117.875C344.68 124.483 359.212 131.535 373.77 139.031C386.655 146.759 398.622 155.735 409.672 165.958C413.32 171.426 412.893 176.555 408.39 181.345C401.741 181.875 396.185 179.524 391.721 174.293C384.663 167.243 376.542 161.687 367.359 157.624C348.234 145.082 327.292 136.748 304.53 132.62C300.829 130.844 298.265 128.067 296.836 124.286C296.836 122.148 296.836 120.012 296.836 117.875Z" fill="#F2B02F"/>
<path fill-rule="evenodd" clip-rule="evenodd" d="M209.645 192.244C206.618 193.14 203.639 194.029 200.669 194.808C193.726 197.612 186.721 198.885 181.435 194.167C178.959 188.383 180.242 183.681 185.282 180.063C192.07 177.032 199.299 174.416 207.08 172.369C219.629 169.527 222.467 181.986 220.543 185.833C218.62 189.679 213.389 190.477 209.645 192.244Z" fill="#F2F2F2"/>
<path fill-rule="evenodd" clip-rule="evenodd" d="M196.822 224.3C196.822 224.727 196.822 225.155 196.822 225.582C188.034 225.166 179.485 225.593 171.178 226.864C170.481 226.787 170.054 226.36 169.895 225.582C178.871 223.659 187.847 223.017 196.822 224.3Z" fill="#F2F2F2"/>
<path fill-rule="evenodd" clip-rule="evenodd" d="M196.822 225.582C196.822 225.155 196.822 224.727 196.822 224.3C204.954 224.087 213.075 224.3 221.185 224.941C224.016 225.186 226.58 225.827 228.878 226.864C218.207 226.153 207.521 225.726 196.822 225.582Z" fill="#F2F2F2"/>
<path fill-rule="evenodd" clip-rule="evenodd" d="M327.61 375.603C317.993 381.373 324.404 393.554 331.456 393.554C367.895 378.971 400.378 358.241 428.906 331.366C439.868 321.048 450.125 310.149 459.679 298.669C414.031 248.49 357.186 220.068 289.143 213.401C253.596 208.771 217.906 205.992 182.077 205.066C152.556 204.348 123.706 208.195 95.5261 216.606C56.1565 227.154 24.7419 248.952 1.28219 282C0.426934 284.564 0.426934 287.129 1.28219 289.693C4.81217 295.474 8.65886 301.03 12.8222 306.362C22.5595 316.009 33.0315 324.557 44.2369 332.007C65.177 345.469 87.4019 356.155 110.913 364.063C123.915 368.061 137.165 371.052 150.662 373.038C154.975 367.452 159.25 361.895 163.484 356.369C189.431 314.542 191.996 271.374 171.178 226.864C170.481 226.787 170.054 226.36 169.895 225.582C178.83 224.304 187.806 223.877 196.822 224.3C204.954 224.087 213.074 224.3 221.185 224.941C224.016 225.186 226.58 225.827 228.878 226.864C253.751 228.881 278.54 231.66 303.247 235.199C353.575 242.625 396.744 263.996 432.753 299.31C402.884 331.969 367.837 357.399 327.61 375.603ZM150.021 226.864C148.725 225.791 147.228 225.364 145.533 225.582C131.905 227.753 118.228 230.53 104.502 233.916C73.2691 242.58 46.5564 258.608 24.3623 282C22.7095 283.994 21.8543 286.13 21.7979 288.411C55.7705 321.532 96.1608 342.262 142.969 350.599C146.524 347.544 149.302 343.91 151.303 339.7C171.366 301.721 170.938 264.109 150.021 226.864Z" fill="#F2F2F2"/>
<path fill-rule="evenodd" clip-rule="evenodd" d="M439.164 256.355C436.599 253.572 434.248 250.58 432.111 247.38C429.352 236.667 433.413 232.607 444.293 235.199C449.664 240.611 454.579 246.381 459.038 252.509C463.636 263.712 460.003 268.626 448.139 267.254C445.321 263.378 442.33 259.746 439.164 256.355Z" fill="#F2B02F"/>
<path fill-rule="evenodd" clip-rule="evenodd" d="M366.077 299.951C366.245 300.899 366.03 301.754 365.436 302.516C362.559 300.231 359.354 299.59 355.819 300.592C354.166 302.903 352.029 304.399 349.408 305.08C349.081 301.854 348.011 298.861 346.202 296.105C338.937 286.16 329.32 279.536 317.352 276.23C296.526 272.987 275.583 271.064 254.523 270.46C244.147 268.094 233.461 266.812 222.467 266.613C212.062 265.577 203.3 261.304 196.181 253.791C193.562 246.189 196.126 241.914 203.875 240.969C212.771 244.637 221.96 247.414 231.442 249.303C251.09 250.728 270.751 252.01 290.425 253.15C308.466 253.813 325.562 258.088 341.714 265.972C354.728 273.848 362.848 285.175 366.077 299.951Z" fill="#F2F2F2"/>
<path fill-rule="evenodd" clip-rule="evenodd" d="M86.5503 262.767C99.7932 262.543 105.563 268.955 103.86 282C99.5996 290.217 92.9756 292.995 83.9858 290.335C73.0907 279.859 73.9447 270.67 86.5503 262.767Z" fill="#F2F2F2"/>
<path fill-rule="evenodd" clip-rule="evenodd" d="M222.467 266.613C233.461 266.812 244.147 268.094 254.523 270.46C243.538 270.166 232.853 268.884 222.467 266.613Z" fill="#F2F2F2"/>
<path fill-rule="evenodd" clip-rule="evenodd" d="M228.878 307.645C223.212 305.757 217.228 304.903 210.927 305.08C198.226 302.558 195.235 295.934 201.951 285.206C205.371 284.35 208.789 284.35 212.209 285.206C216.642 287.441 221.342 288.723 226.314 289.052C246.402 289.479 266.49 289.908 286.578 290.335C299.016 291.631 310.556 295.478 321.199 301.875C327.334 306.232 330.113 312.002 329.533 319.185C326.704 323.833 322.644 325.329 317.352 323.673C310.529 317.054 302.407 312.78 292.989 310.85C271.653 309.308 250.282 308.24 228.878 307.645Z" fill="#F2F2F2"/>
<path fill-rule="evenodd" clip-rule="evenodd" d="M381.463 279.436C385.079 279.112 388.498 279.754 391.721 281.359C397.124 287.188 402.039 293.385 406.467 299.951C410.535 310.876 406.903 316.219 395.568 315.979C390.91 307.32 385.139 299.414 378.258 292.258C376.797 287.23 377.867 282.957 381.463 279.436Z" fill="#F2B02F"/>
<path fill-rule="evenodd" clip-rule="evenodd" d="M210.927 305.08C217.228 304.903 223.212 305.757 228.878 307.645C222.577 307.822 216.593 306.968 210.927 305.08Z" fill="#F2F2F2"/>
<path fill-rule="evenodd" clip-rule="evenodd" d="M366.077 299.951C367.811 305.152 367.17 310.281 364.153 315.338C357.057 327.352 348.296 338.037 337.868 347.394C325.458 356.127 312.208 363.606 298.118 369.833C284.022 375.067 269.489 378.272 254.523 379.449C260.786 377.106 267.197 374.541 273.756 371.756C273.488 371.005 273.06 370.364 272.474 369.833C281.049 365.812 280.622 363.033 271.192 361.498C241.171 365.705 211.252 366.346 181.436 363.422C179.085 364.063 177.589 365.559 176.948 367.909C176.521 366.627 176.092 365.345 175.665 364.063C173.315 365.559 171.392 367.482 169.895 369.833C167.85 369.042 166.141 369.469 164.767 371.115C168.409 374.604 172.042 374.817 175.665 371.756C180.012 373.336 179.798 374.405 175.024 374.962C179.799 375.984 184.5 377.266 189.129 378.808C210.068 379.449 231.01 379.023 251.958 378.808C251.958 379.235 254.793 379.001 254.793 379.428C220.47 383.01 183.87 381.75 150.662 373.038C154.975 367.452 159.25 361.894 163.484 356.369C164.393 357.528 165.676 357.955 167.331 357.652C200.789 365.368 234.554 366.009 268.627 359.575C275.547 358.181 281.449 356.6 289.143 354.446C305.171 349.958 334.872 328.583 349.408 305.08C351.39 301.875 352.613 300.592 355.819 299.951C359.354 298.949 362.559 300.231 365.436 302.516C366.03 301.754 366.245 300.899 366.077 299.951Z" fill="#F2B02F"/>
<path fill-rule="evenodd" clip-rule="evenodd" d="M273.756 344.829C247.256 346.539 220.758 346.539 194.258 344.829C188.71 338.164 189.138 331.967 195.54 326.237C220.329 325.382 245.12 325.382 269.909 326.237C272.585 327.253 274.937 328.749 276.962 330.725C278.485 336.163 277.417 340.865 273.756 344.829Z" fill="#F2F2F2"/>
<path fill-rule="evenodd" clip-rule="evenodd" d="M431.47 351.24C437.026 345.256 442.583 339.273 448.139 333.289C459.274 330.968 462.908 335.242 459.038 346.112C453.989 353.027 448.219 359.224 441.728 364.704C432.315 364.899 428.896 360.411 431.47 351.24Z" fill="#F2B02F"/>
<path fill-rule="evenodd" clip-rule="evenodd" d="M254.523 379.45C253.667 379.45 252.813 379.45 251.958 379.45C231.01 379.664 210.068 379.45 189.129 378.808C184.5 377.266 179.799 375.984 175.024 374.962C179.798 374.405 180.012 373.336 175.665 371.756C173.101 375.603 164.766 374.962 164.766 370.474C166.141 368.828 167.85 368.401 169.895 369.192C171.392 366.841 173.315 365.559 175.665 364.063C176.092 365.345 176.521 366.627 176.948 367.909C177.589 365.559 179.085 364.063 181.435 363.422C211.252 366.346 241.171 365.705 271.192 361.498C280.622 363.033 281.049 365.812 272.474 369.833C273.06 370.364 273.488 371.005 273.756 371.756C267.197 374.541 260.786 377.106 254.523 379.45Z" fill="#F2B02F"/>
<path fill-rule="evenodd" clip-rule="evenodd" d="M410.955 455.101C410.634 457.889 409.352 460.026 407.108 461.512C404.223 461.103 401.658 461.744 399.415 463.436C306.667 464.077 213.919 464.291 121.171 464.077C114.639 459.197 113.357 453.212 117.324 446.125C209.218 446.125 301.11 446.125 393.003 446.125C394.069 425.402 394.71 404.459 394.927 383.296C397.384 380.077 400.375 377.512 403.902 375.603C406.492 376.285 407.561 377.994 407.108 380.732C408.39 380.732 409.672 380.732 410.955 380.732C410.955 405.521 410.955 430.312 410.955 455.101Z" fill="#F2F2F2"/>
<path fill-rule="evenodd" clip-rule="evenodd" d="M319.916 408.941C322.267 411.5 322.908 414.492 321.84 417.916C319.703 421.117 317.352 424.108 314.787 426.892C303.824 424.847 292.925 422.282 282.091 419.199C259.467 423.747 236.6 425.457 213.491 424.328C195.519 423.739 177.997 420.748 160.92 415.352C157.122 408.997 157.55 403.013 162.202 397.401C190.832 404.821 219.895 407.385 249.394 405.094C247.338 401.447 246.697 397.601 247.47 393.554C248.776 389.473 251.554 387.763 255.805 388.425C269.378 393.45 283.055 398.365 296.836 403.171C304.58 405.107 312.273 407.03 319.916 408.941Z" fill="#F2F2F2"/>
<path fill-rule="evenodd" clip-rule="evenodd" d="M71.1637 367.909C72.646 398.162 72.8588 428.509 71.8048 458.948C66.0232 465.715 60.4673 465.715 55.1358 458.948C54.2806 428.601 54.2806 398.256 55.1358 367.909C60.4763 362.841 65.8181 362.841 71.1637 367.909Z" fill="#F2B02F"/>
<path fill-rule="evenodd" clip-rule="evenodd" d="M160.92 396.118C161.775 396.118 162.202 396.545 162.202 397.401C157.55 403.013 157.122 408.997 160.92 415.352C145.824 411.603 130.866 407.329 116.042 402.53C115.133 401.371 113.851 400.944 112.195 401.247C110.708 416.411 110.495 431.798 111.554 447.408C113.689 451.335 113.048 454.968 109.631 458.307C106.275 459.361 102.855 460.002 99.3729 460.23C97.2752 458.628 95.7788 456.491 94.8851 453.819C94.244 431.17 94.0299 408.518 94.244 385.861C94.3171 384.439 94.7441 383.156 95.5262 382.014C98.6036 378.501 102.45 377.433 107.066 378.808C124.657 385.679 142.608 391.449 160.92 396.118Z" fill="#F2B02F"/>
<path fill-rule="evenodd" clip-rule="evenodd" d="M393.003 383.296C393.003 390.563 393.003 397.828 393.003 405.094C377.3 414.456 360.631 421.294 342.996 425.61C333.637 426.7 324.235 427.127 314.787 426.892C317.352 424.108 319.703 421.117 321.84 417.916C322.908 414.492 322.267 411.5 319.916 408.941C326.769 409.154 333.607 408.94 340.432 408.3C359.353 402.684 376.877 394.349 393.003 383.296Z" fill="#F2B02F"/>
<path fill-rule="evenodd" clip-rule="evenodd" d="M410.955 376.885C412.641 403.121 412.641 429.192 410.955 455.101C410.955 430.312 410.955 405.521 410.955 380.732C409.672 380.732 408.39 380.732 407.108 380.732C407.561 377.994 406.492 376.285 403.902 375.603C400.375 377.512 397.384 380.077 394.927 383.296C394.71 404.459 394.069 425.402 393.003 446.125C393.003 433.303 393.003 420.481 393.003 407.659C393.003 406.803 393.003 405.949 393.003 405.094C393.003 397.828 393.003 390.563 393.003 383.296C395.904 372.543 401.887 370.406 410.955 376.885Z" fill="#F2F2F2"/>
<path fill-rule="evenodd" clip-rule="evenodd" d="M112.195 401.247C113.85 400.944 115.133 401.371 116.042 402.53C113.506 416.571 112.652 431.103 113.477 446.125C112.201 431.395 111.775 416.435 112.195 401.247Z" fill="#F2B02F"/>
<path fill-rule="evenodd" clip-rule="evenodd" d="M112.195 401.247C111.775 416.435 112.202 431.395 113.477 446.125C114.76 446.125 116.042 446.125 117.324 446.125C113.357 453.212 114.639 459.197 121.171 464.077C121.171 464.504 121.171 464.932 121.171 465.359C115.598 465.572 110.042 465.358 104.502 464.718C102.163 463.872 96.8084 459.589 95.5261 455.101C99.0087 454.873 106.275 459.361 109.631 458.307C113.048 454.968 113.689 451.335 111.554 447.408C110.495 431.798 110.708 416.411 112.195 401.247Z" fill="#F2B02F"/>
<path fill-rule="evenodd" clip-rule="evenodd" d="M407.108 461.512C406.022 463.392 404.313 464.461 401.979 464.718C308.378 465.359 214.775 465.573 121.171 465.359C121.171 464.932 121.171 464.504 121.171 464.077C213.919 464.291 306.667 464.077 399.415 463.436C401.658 461.744 404.223 461.103 407.108 461.512Z" fill="#F2F2F2"/>
</g>
</g>
<defs>
<clipPath id="clip0_132_406">
<rect width="461.603" height="368" fill="white" transform="translate(0 98)"/>
</clipPath>
</defs>
</svg>
