<svg width="360" height="287" viewBox="0 0 360 287" fill="none" xmlns="http://www.w3.org/2000/svg">
<g clip-path="url(#clip0_132_122)">
<path fill-rule="evenodd" clip-rule="evenodd" d="M82.5 0.5C159.5 0.5 236.5 0.5 313.5 0.5C321.949 3.054 323.615 7.887 318.5 15C298.169 15.5 277.836 15.667 257.5 15.5C248.833 15.5 240.167 15.5 231.5 15.5C183.833 15.5 136.167 15.5 88.5 15.5C87.174 30.339 87.174 45.339 88.5 60.5C89.107 60.376 89.44 60.043 89.5 59.5C114.834 45.17 141.834 35.337 170.5 30C208.178 26.07 243.178 33.903 275.5 53.5C292.537 63.802 307.371 76.802 320 92.5C322.109 96.781 321.942 100.948 319.5 105C313.601 105.56 308.601 103.56 304.5 99C282.021 86.618 258.021 78.618 232.5 75C221.182 73.535 209.849 72.202 198.5 71C193.177 66.38 193.177 61.714 198.5 57C204.504 56.7 210.504 56.866 216.5 57.5C232.924 59.46 249.257 62.293 265.5 66C262.09 63.628 258.423 61.795 254.5 60.5C241.718 53.461 228.051 48.794 213.5 46.5C194.861 42.195 176.194 42.695 157.5 48C131.938 56.112 107.272 66.445 83.5 79C78.831 80.538 75.664 79.038 74 74.5C73.333 52.167 73.333 29.833 74 7.5C75.805 3.857 78.638 1.524 82.5 0.5Z" fill="#F2F2F2"/>
<path fill-rule="evenodd" clip-rule="evenodd" d="M88.5 16.5C88.5 16.167 88.5 15.833 88.5 15.5C136.167 15.5 183.833 15.5 231.5 15.5C231.5 13.833 231.5 17.167 231.5 15.5C230.5 15.5 230.5 14.5 230.5 15.5C183.167 15.5 135.833 16.5 88.5 16.5Z" fill="#F2F2F2"/>
<path fill-rule="evenodd" clip-rule="evenodd" d="M88.4999 15.5C88.4999 15.833 88.4999 16.167 88.4999 16.5C88.1709 31.01 88.5039 45.343 89.4999 59.5C89.4399 60.043 89.1069 60.376 88.4999 60.5C87.1739 45.339 87.1739 30.339 88.4999 15.5Z" fill="#F2F2F2"/>
<path fill-rule="evenodd" clip-rule="evenodd" d="M46.5 0.499999C50.594 -0.295001 53.761 1.038 56 4.5C56.667 31.167 56.667 57.833 56 84.5C52.468 90.29 48.135 90.957 43 86.5C42.333 59.167 42.333 31.833 43 4.5C44.376 3.295 45.542 1.962 46.5 0.499999Z" fill="#F2B02F"/>
<path fill-rule="evenodd" clip-rule="evenodd" d="M231.5 15.5C240.167 15.5 248.833 15.5 257.5 15.5C268.813 20.654 280.146 26.154 291.5 32C301.549 38.027 310.882 45.027 319.5 53C322.345 57.264 322.012 61.264 318.5 65C313.314 65.413 308.981 63.58 305.5 59.5C299.995 54.002 293.662 49.669 286.5 46.5C271.585 36.719 255.252 30.219 237.5 27C234.614 25.615 232.614 23.449 231.5 20.5C231.5 18.833 231.5 17.167 231.5 15.5Z" fill="#F2B02F"/>
<path fill-rule="evenodd" clip-rule="evenodd" d="M163.5 73.5C161.14 74.1985 158.816 74.892 156.5 75.5C151.085 77.6862 145.622 78.6794 141.5 75C139.569 70.489 140.569 66.822 144.5 64C149.794 61.6361 155.432 59.5964 161.5 58C171.287 55.783 173.5 65.5 172 68.5C170.5 71.5 166.42 72.122 163.5 73.5Z" fill="#F2F2F2"/>
<path fill-rule="evenodd" clip-rule="evenodd" d="M153.5 98.5C153.5 98.833 153.5 99.167 153.5 99.5C146.646 99.176 139.979 99.509 133.5 100.5C132.957 100.44 132.624 100.107 132.5 99.5C139.5 98 146.5 97.5 153.5 98.5Z" fill="#F2F2F2"/>
<path fill-rule="evenodd" clip-rule="evenodd" d="M153.5 99.5C153.5 99.167 153.5 98.833 153.5 98.5C159.842 98.334 166.175 98.5 172.5 99C174.708 99.191 176.708 99.691 178.5 100.5C170.178 99.945 161.844 99.612 153.5 99.5Z" fill="#F2F2F2"/>
<path fill-rule="evenodd" clip-rule="evenodd" d="M255.5 216.5C248 221 253 230.5 258.5 230.5C286.918 219.127 312.251 202.96 334.5 182C343.049 173.953 351.049 165.453 358.5 156.5C322.899 117.366 278.566 95.2 225.5 90C197.777 86.389 169.943 84.222 142 83.5C118.977 82.94 96.477 85.94 74.5 92.5C43.796 100.726 19.296 117.726 1.00001 143.5C0.333006 145.5 0.333006 147.5 1.00001 149.5C3.75301 154.008 6.75301 158.341 10 162.5C17.594 170.023 25.761 176.69 34.5 182.5C50.831 192.999 68.164 201.333 86.5 207.5C96.64 210.618 106.974 212.951 117.5 214.5C120.864 210.143 124.198 205.809 127.5 201.5C147.736 168.879 149.736 135.213 133.5 100.5C132.957 100.44 132.624 100.107 132.5 99.5C139.468 98.503 146.468 98.17 153.5 98.5C159.842 98.334 166.175 98.5 172.5 99C174.708 99.191 176.708 99.691 178.5 100.5C197.898 102.073 217.231 104.24 236.5 107C275.75 112.792 309.417 129.459 337.5 157C314.206 182.47 286.873 202.303 255.5 216.5ZM117 100.5C115.989 99.663 114.822 99.33 113.5 99.5C102.872 101.193 92.205 103.359 81.5 106C57.142 112.757 36.309 125.257 19 143.5C17.711 145.055 17.044 146.721 17 148.5C43.495 174.331 74.995 190.498 111.5 197C114.273 194.617 116.439 191.783 118 188.5C133.647 158.88 133.313 129.547 117 100.5Z" fill="#F2F2F2"/>
<path fill-rule="evenodd" clip-rule="evenodd" d="M342.5 123.5C340.5 121.329 338.666 118.996 337 116.5C334.848 108.145 338.015 104.979 346.5 107C350.689 111.221 354.522 115.721 358 120.5C361.586 129.237 358.752 133.07 349.5 132C347.302 128.977 344.969 126.144 342.5 123.5Z" fill="#F2B02F"/>
<path fill-rule="evenodd" clip-rule="evenodd" d="M285.5 157.5C285.631 158.239 285.464 158.906 285 159.5C282.757 157.718 280.257 157.218 277.5 158C276.211 159.802 274.544 160.969 272.5 161.5C272.245 158.984 271.411 156.65 270 154.5C264.334 146.744 256.834 141.578 247.5 139C231.258 136.471 214.925 134.971 198.5 134.5C190.408 132.655 182.074 131.655 173.5 131.5C165.385 130.692 158.552 127.359 153 121.5C150.957 115.571 152.957 112.237 159 111.5C165.938 114.361 173.105 116.527 180.5 118C195.823 119.111 211.156 120.111 226.5 121C240.57 121.517 253.903 124.851 266.5 131C276.649 137.142 282.982 145.976 285.5 157.5Z" fill="#F2F2F2"/>
<path fill-rule="evenodd" clip-rule="evenodd" d="M67.4999 128.5C77.8279 128.326 82.3279 133.326 80.9999 143.5C77.6769 149.908 72.5109 152.075 65.4999 150C57.0029 141.83 57.6689 134.664 67.4999 128.5Z" fill="#F2F2F2"/>
<path fill-rule="evenodd" clip-rule="evenodd" d="M173.5 131.5C182.074 131.655 190.408 132.655 198.5 134.5C189.933 134.271 181.6 133.271 173.5 131.5Z" fill="#F2F2F2"/>
<path fill-rule="evenodd" clip-rule="evenodd" d="M178.5 163.5C174.081 162.028 169.414 161.362 164.5 161.5C154.595 159.533 152.262 154.367 157.5 146C160.167 145.333 162.833 145.333 165.5 146C168.957 147.743 172.623 148.743 176.5 149C192.167 149.333 207.833 149.667 223.5 150C233.2 151.011 242.2 154.011 250.5 159C255.285 162.398 257.452 166.898 257 172.5C254.794 176.125 251.627 177.292 247.5 176C242.179 170.838 235.845 167.505 228.5 166C211.86 164.797 195.193 163.964 178.5 163.5Z" fill="#F2F2F2"/>
<path fill-rule="evenodd" clip-rule="evenodd" d="M297.5 141.5C300.32 141.248 302.986 141.748 305.5 143C309.714 147.546 313.547 152.379 317 157.5C320.173 166.02 317.34 170.187 308.5 170C304.867 163.247 300.367 157.081 295 151.5C293.861 147.579 294.695 144.246 297.5 141.5Z" fill="#F2B02F"/>
<path fill-rule="evenodd" clip-rule="evenodd" d="M164.5 161.5C169.414 161.362 174.081 162.028 178.5 163.5C173.586 163.638 168.919 162.972 164.5 161.5Z" fill="#F2F2F2"/>
<path fill-rule="evenodd" clip-rule="evenodd" d="M285.5 157.5C286.853 161.556 286.353 165.556 284 169.5C278.466 178.87 271.633 187.203 263.5 194.5C253.822 201.311 243.488 207.144 232.5 212C221.506 216.082 210.172 218.582 198.5 219.5C203.385 217.672 208.385 215.672 213.5 213.5C213.291 212.914 212.957 212.414 212.5 212C219.188 208.864 218.855 206.697 211.5 205.5C188.087 208.781 164.754 209.281 141.5 207C139.667 207.5 138.5 208.667 138 210.5C137.667 209.5 137.333 208.5 137 207.5C135.167 208.667 133.667 210.167 132.5 212C130.905 211.383 129.572 211.716 128.5 213C131.341 215.721 134.174 215.887 137 213.5C140.39 214.732 140.223 215.566 136.5 216C140.224 216.797 143.89 217.797 147.5 219C163.83 219.5 180.163 219.167 196.5 219C196.5 219.333 198.711 219.15 198.711 219.483C171.943 222.277 143.399 221.294 117.5 214.5C120.864 210.143 124.198 205.809 127.5 201.5C128.209 202.404 129.209 202.737 130.5 202.5C156.594 208.518 182.927 209.018 209.5 204C214.897 202.913 219.5 201.68 225.5 200C238 196.5 261.164 179.83 272.5 161.5C274.046 159 275 158 277.5 157.5C280.257 156.718 282.757 157.718 285 159.5C285.464 158.906 285.631 158.239 285.5 157.5Z" fill="#F2B02F"/>
<path fill-rule="evenodd" clip-rule="evenodd" d="M213.5 192.5C192.833 193.833 172.167 193.833 151.5 192.5C147.173 187.302 147.507 182.469 152.5 178C171.833 177.333 191.167 177.333 210.5 178C212.587 178.792 214.421 179.959 216 181.5C217.188 185.741 216.355 189.408 213.5 192.5Z" fill="#F2F2F2"/>
<path fill-rule="evenodd" clip-rule="evenodd" d="M336.5 197.5C340.833 192.833 345.167 188.167 349.5 183.5C358.184 181.69 361.018 185.023 358 193.5C354.062 198.893 349.562 203.726 344.5 208C337.159 208.152 334.492 204.652 336.5 197.5Z" fill="#F2B02F"/>
<path fill-rule="evenodd" clip-rule="evenodd" d="M198.5 219.5C197.833 219.5 197.167 219.5 196.5 219.5C180.163 219.667 163.83 219.5 147.5 219C143.89 217.797 140.224 216.797 136.5 216C140.223 215.566 140.39 214.732 137 213.5C135 216.5 128.5 216 128.5 212.5C129.572 211.216 130.905 210.883 132.5 211.5C133.667 209.667 135.167 208.667 137 207.5C137.333 208.5 137.667 209.5 138 210.5C138.5 208.667 139.667 207.5 141.5 207C164.754 209.281 188.087 208.781 211.5 205.5C218.855 206.697 219.188 208.864 212.5 212C212.957 212.414 213.291 212.914 213.5 213.5C208.385 215.672 203.385 217.672 198.5 219.5Z" fill="#F2B02F"/>
<path fill-rule="evenodd" clip-rule="evenodd" d="M320.5 278.5C320.25 280.674 319.25 282.341 317.5 283.5C315.25 283.181 313.25 283.681 311.5 285C239.167 285.5 166.834 285.667 94.5 285.5C89.406 281.694 88.406 277.027 91.5 271.5C163.167 271.5 234.833 271.5 306.5 271.5C307.331 255.338 307.831 239.005 308 222.5C309.916 219.989 312.249 217.989 315 216.5C317.02 217.032 317.853 218.365 317.5 220.5C318.5 220.5 319.5 220.5 320.5 220.5C320.5 239.833 320.5 259.167 320.5 278.5Z" fill="#F2F2F2"/>
<path fill-rule="evenodd" clip-rule="evenodd" d="M249.5 242.5C251.333 244.496 251.833 246.829 251 249.5C249.334 251.996 247.5 254.329 245.5 256.5C236.95 254.905 228.45 252.905 220 250.5C202.356 254.047 184.522 255.381 166.5 254.5C152.484 254.041 138.818 251.708 125.5 247.5C122.538 242.544 122.872 237.877 126.5 233.5C148.828 239.287 171.494 241.287 194.5 239.5C192.897 236.656 192.397 233.656 193 230.5C194.018 227.317 196.185 225.984 199.5 226.5C210.086 230.419 220.752 234.252 231.5 238C237.539 239.51 243.539 241.01 249.5 242.5Z" fill="#F2F2F2"/>
<path fill-rule="evenodd" clip-rule="evenodd" d="M55.5 210.5C56.656 234.094 56.822 257.761 56 281.5C51.491 286.778 47.158 286.778 43 281.5C42.333 257.833 42.333 234.167 43 210.5C47.165 206.547 51.331 206.547 55.5 210.5Z" fill="#F2B02F"/>
<path fill-rule="evenodd" clip-rule="evenodd" d="M125.5 232.5C126.167 232.5 126.5 232.833 126.5 233.5C122.872 237.877 122.538 242.544 125.5 247.5C113.727 244.576 102.061 241.243 90.5001 237.5C89.7911 236.596 88.7911 236.263 87.5001 236.5C86.3401 248.326 86.1741 260.326 87.0001 272.5C88.6651 275.563 88.1651 278.396 85.5001 281C82.8831 281.822 80.2161 282.322 77.5001 282.5C75.8641 281.251 74.6971 279.584 74.0001 277.5C73.5001 259.836 73.3331 242.17 73.5001 224.5C73.5571 223.391 73.8901 222.391 74.5001 221.5C76.9001 218.76 79.9001 217.927 83.5001 219C97.2191 224.358 111.219 228.858 125.5 232.5Z" fill="#F2B02F"/>
<path fill-rule="evenodd" clip-rule="evenodd" d="M306.5 222.5C306.5 228.167 306.5 233.833 306.5 239.5C294.253 246.801 281.253 252.134 267.5 255.5C260.201 256.35 252.868 256.683 245.5 256.5C247.5 254.329 249.334 251.996 251 249.5C251.833 246.829 251.333 244.496 249.5 242.5C254.844 242.666 260.177 242.499 265.5 242C280.256 237.62 293.923 231.12 306.5 222.5Z" fill="#F2B02F"/>
<path fill-rule="evenodd" clip-rule="evenodd" d="M320.5 217.5C321.815 237.961 321.815 258.294 320.5 278.5C320.5 259.167 320.5 239.833 320.5 220.5C319.5 220.5 318.5 220.5 317.5 220.5C317.853 218.365 317.02 217.032 315 216.5C312.249 217.989 309.916 219.989 308 222.5C307.831 239.005 307.331 255.338 306.5 271.5C306.5 261.5 306.5 251.5 306.5 241.5C306.5 240.833 306.5 240.167 306.5 239.5C306.5 233.833 306.5 228.167 306.5 222.5C308.762 214.114 313.428 212.447 320.5 217.5Z" fill="#F2F2F2"/>
<path fill-rule="evenodd" clip-rule="evenodd" d="M87.5 236.5C88.791 236.263 89.791 236.596 90.5 237.5C88.522 248.451 87.856 259.784 88.5 271.5C87.505 260.012 87.172 248.345 87.5 236.5Z" fill="#F2B02F"/>
<path fill-rule="evenodd" clip-rule="evenodd" d="M87.5 236.5C87.172 248.345 87.505 260.012 88.5 271.5C89.5 271.5 90.5 271.5 91.5 271.5C88.406 277.027 89.406 281.694 94.5 285.5C94.5 285.833 94.5 286.167 94.5 286.5C90.154 286.666 85.821 286.499 81.5 286C79.676 285.34 75.5 282 74.5 278.5C77.216 278.322 82.883 281.822 85.5 281C88.165 278.396 88.665 275.563 87 272.5C86.174 260.326 86.34 248.326 87.5 236.5Z" fill="#F2B02F"/>
<path fill-rule="evenodd" clip-rule="evenodd" d="M317.5 283.5C316.653 284.966 315.32 285.8 313.5 286C240.501 286.5 167.501 286.667 94.5 286.5C94.5 286.167 94.5 285.833 94.5 285.5C166.834 285.667 239.167 285.5 311.5 285C313.25 283.681 315.25 283.181 317.5 283.5Z" fill="#F2F2F2"/>
</g>
<defs>
<clipPath id="clip0_132_122">
<rect width="360" height="287" fill="white"/>
</clipPath>
</defs>
</svg>
