<svg width="462" height="368" viewBox="0 0 462 368" fill="none" xmlns="http://www.w3.org/2000/svg">
<g clip-path="url(#clip0_132_372)">
<mask id="mask0_132_372" style="mask-type:luminance" maskUnits="userSpaceOnUse" x="0" y="0" width="462" height="368">
<path d="M461.603 0H0V368H461.603V0Z" fill="white"/>
</mask>
<g mask="url(#mask0_132_372)">
<path fill-rule="evenodd" clip-rule="evenodd" d="M105.784 0.641235C204.516 0.641235 303.247 0.641235 401.979 0.641235C412.813 3.91605 414.949 10.1131 408.39 19.2336C382.321 19.8747 356.25 20.0888 330.174 19.8747C319.061 19.8747 307.949 19.8747 296.836 19.8747C235.716 19.8747 174.597 19.8747 113.477 19.8747C111.777 38.9017 111.777 58.1351 113.477 77.575C114.256 77.416 114.683 76.9891 114.76 76.2928C147.244 57.9185 181.864 45.3103 218.62 38.467C266.932 33.4279 311.81 43.4716 353.254 68.5994C375.1 81.809 394.12 98.478 410.314 118.606C413.018 124.096 412.804 129.439 409.672 134.634C402.109 135.352 395.697 132.788 390.439 126.941C361.616 111.064 330.842 100.806 298.118 96.1674C283.606 94.2889 269.075 92.5797 254.523 91.0385C247.697 85.1145 247.697 79.1317 254.523 73.0872C262.221 72.7026 269.914 72.9154 277.603 73.7283C298.662 76.2415 319.605 79.8741 340.432 84.6273C336.06 81.5859 331.358 79.2355 326.327 77.575C309.938 68.5494 292.414 62.5653 273.756 59.6238C249.857 54.1038 225.921 54.7449 201.951 61.5472C169.175 71.9486 137.547 85.1979 107.066 101.296C101.079 103.268 97.0186 101.345 94.885 95.5263C94.0297 66.8902 94.0297 38.2529 94.885 9.61685C97.1994 4.94568 100.832 1.95424 105.784 0.641235Z" fill="#387B3D"/>
<path fill-rule="evenodd" clip-rule="evenodd" d="M113.477 21.1568C113.477 20.7299 113.477 20.3016 113.477 19.8746C174.597 19.8746 235.716 19.8746 296.836 19.8746C296.836 22.0121 296.836 17.7371 296.836 19.8746C295.554 19.8746 295.554 18.5924 295.554 19.8746C234.862 19.8746 174.169 21.1568 113.477 21.1568Z" fill="#387B3D"/>
<path fill-rule="evenodd" clip-rule="evenodd" d="M113.477 19.8746C113.477 20.3016 113.477 20.7299 113.477 21.1569C113.055 39.762 113.482 58.1402 114.759 76.2927C114.683 76.989 114.256 77.416 113.477 77.575C111.777 58.1351 111.777 38.9016 113.477 19.8746Z" fill="#387B3D"/>
<path fill-rule="evenodd" clip-rule="evenodd" d="M59.6236 0.641203C64.8731 -0.37817 68.9339 1.33104 71.8048 5.77012C72.6601 39.9633 72.6601 74.1553 71.8048 108.349C67.276 115.773 61.7201 116.628 55.1358 110.913C54.2806 75.8658 54.2806 40.8173 55.1358 5.77012C56.9002 4.22504 58.3952 2.51582 59.6236 0.641203Z" fill="#F2B02F"/>
<path fill-rule="evenodd" clip-rule="evenodd" d="M296.836 19.8746C307.949 19.8746 319.061 19.8746 330.174 19.8746C344.68 26.4832 359.212 33.5355 373.77 41.0314C386.655 48.7594 398.622 57.735 409.672 67.9583C413.32 73.4257 412.893 78.5546 408.39 83.345C401.741 83.8746 396.185 81.5242 391.721 76.2927C384.663 69.243 376.542 63.6871 367.359 59.6238C348.234 47.0823 327.292 38.7478 304.53 34.6203C300.829 32.8444 298.265 30.0671 296.836 26.2858C296.836 24.1483 296.836 22.0121 296.836 19.8746Z" fill="#F2B02F"/>
<path fill-rule="evenodd" clip-rule="evenodd" d="M209.645 94.244C206.618 95.1397 203.639 96.0289 200.669 96.8085C193.726 99.6117 186.721 100.885 181.435 96.1674C178.959 90.3832 180.242 85.6813 185.282 82.0629C192.07 79.0318 199.299 76.4164 207.08 74.3695C219.629 71.5268 222.467 83.9862 220.543 87.8329C218.62 91.6796 213.389 92.4771 209.645 94.244Z" fill="#387B3D"/>
<path fill-rule="evenodd" clip-rule="evenodd" d="M196.822 126.3C196.822 126.727 196.822 127.155 196.822 127.582C188.034 127.167 179.485 127.594 171.178 128.864C170.481 128.787 170.054 128.36 169.895 127.582C178.871 125.659 187.847 125.018 196.822 126.3Z" fill="#387B3D"/>
<path fill-rule="evenodd" clip-rule="evenodd" d="M196.822 127.582C196.822 127.155 196.822 126.727 196.822 126.3C204.954 126.087 213.075 126.3 221.185 126.941C224.016 127.186 226.58 127.827 228.878 128.864C218.207 128.153 207.521 127.726 196.822 127.582Z" fill="#387B3D"/>
<path fill-rule="evenodd" clip-rule="evenodd" d="M327.61 277.603C317.993 283.373 324.404 295.554 331.456 295.554C367.895 280.971 400.378 260.241 428.906 233.366C439.868 223.048 450.125 212.149 459.679 200.669C414.031 150.49 357.186 122.068 289.143 115.401C253.596 110.771 217.906 107.992 182.077 107.066C152.556 106.348 123.706 110.195 95.5261 118.606C56.1565 129.154 24.7419 150.952 1.28219 184C0.426934 186.565 0.426934 189.129 1.28219 191.693C4.81217 197.474 8.65886 203.03 12.8222 208.362C22.5595 218.009 33.0315 226.557 44.2369 234.007C65.177 247.469 87.4019 258.155 110.913 266.063C123.915 270.061 137.165 273.052 150.662 275.038C154.975 269.452 159.25 263.895 163.484 258.369C189.431 216.542 191.996 173.374 171.178 128.864C170.481 128.787 170.054 128.36 169.895 127.582C178.83 126.304 187.806 125.877 196.822 126.3C204.954 126.087 213.074 126.3 221.185 126.941C224.016 127.186 226.58 127.827 228.878 128.864C253.751 130.881 278.54 133.66 303.247 137.199C353.575 144.625 396.744 165.996 432.753 201.31C402.884 233.969 367.837 259.399 327.61 277.603ZM150.021 128.864C148.725 127.791 147.228 127.364 145.533 127.582C131.905 129.753 118.228 132.53 104.502 135.916C73.2691 144.58 46.5564 160.608 24.3623 184C22.7095 185.994 21.8543 188.13 21.7979 190.411C55.7705 223.533 96.1608 244.262 142.969 252.599C146.524 249.544 149.302 245.91 151.303 241.7C171.366 203.721 170.938 166.109 150.021 128.864Z" fill="#387B3D"/>
<path fill-rule="evenodd" clip-rule="evenodd" d="M439.164 158.356C436.599 155.572 434.248 152.58 432.111 149.38C429.352 138.667 433.413 134.607 444.293 137.199C449.664 142.611 454.579 148.381 459.038 154.509C463.636 165.712 460.003 170.627 448.139 169.255C445.321 165.378 442.33 161.746 439.164 158.356Z" fill="#F2B02F"/>
<path fill-rule="evenodd" clip-rule="evenodd" d="M366.077 201.951C366.245 202.899 366.03 203.754 365.436 204.516C362.559 202.231 359.354 201.59 355.819 202.592C354.166 204.903 352.029 206.399 349.408 207.08C349.081 203.854 348.011 200.861 346.202 198.105C338.937 188.16 329.32 181.536 317.352 178.23C296.526 174.987 275.583 173.064 254.523 172.46C244.147 170.094 233.461 168.812 222.467 168.613C212.062 167.577 203.3 163.304 196.181 155.791C193.562 148.189 196.126 143.914 203.875 142.969C212.771 146.637 221.96 149.415 231.442 151.303C251.09 152.728 270.751 154.01 290.425 155.15C308.466 155.813 325.562 160.088 341.714 167.972C354.728 175.848 362.848 187.175 366.077 201.951Z" fill="#387B3D"/>
<path fill-rule="evenodd" clip-rule="evenodd" d="M86.5503 164.767C99.7932 164.544 105.563 170.955 103.86 184C99.5996 192.217 92.9756 194.995 83.9858 192.335C73.0907 181.859 73.9447 172.67 86.5503 164.767Z" fill="#387B3D"/>
<path fill-rule="evenodd" clip-rule="evenodd" d="M222.467 168.613C233.461 168.812 244.147 170.094 254.523 172.46C243.538 172.166 232.853 170.884 222.467 168.613Z" fill="#387B3D"/>
<path fill-rule="evenodd" clip-rule="evenodd" d="M228.878 209.645C223.212 207.757 217.228 206.903 210.927 207.08C198.226 204.558 195.235 197.934 201.951 187.206C205.371 186.35 208.789 186.35 212.209 187.206C216.642 189.441 221.342 190.723 226.314 191.052C246.402 191.479 266.49 191.908 286.578 192.335C299.016 193.631 310.556 197.478 321.199 203.875C327.334 208.232 330.113 214.002 329.533 221.185C326.704 225.833 322.644 227.329 317.352 225.673C310.529 219.054 302.407 214.78 292.989 212.85C271.653 211.308 250.282 210.24 228.878 209.645Z" fill="#387B3D"/>
<path fill-rule="evenodd" clip-rule="evenodd" d="M381.463 181.436C385.079 181.113 388.498 181.754 391.721 183.359C397.124 189.188 402.039 195.385 406.467 201.951C410.535 212.876 406.903 218.219 395.568 217.979C390.91 209.32 385.139 201.414 378.258 194.258C376.797 189.23 377.867 184.957 381.463 181.436Z" fill="#F2B02F"/>
<path fill-rule="evenodd" clip-rule="evenodd" d="M210.927 207.08C217.228 206.903 223.212 207.757 228.878 209.645C222.577 209.822 216.593 208.968 210.927 207.08Z" fill="#387B3D"/>
<path fill-rule="evenodd" clip-rule="evenodd" d="M366.077 201.951C367.811 207.152 367.17 212.281 364.153 217.338C357.057 229.353 348.296 240.037 337.868 249.394C325.458 258.127 312.208 265.606 298.118 271.833C284.022 277.067 269.489 280.272 254.523 281.45C260.786 279.106 267.197 276.541 273.756 273.756C273.488 273.005 273.06 272.364 272.474 271.833C281.049 267.812 280.622 265.033 271.192 263.498C241.171 267.705 211.252 268.346 181.436 265.422C179.085 266.063 177.589 267.559 176.948 269.91C176.521 268.627 176.092 267.345 175.665 266.063C173.315 267.559 171.392 269.483 169.895 271.833C167.85 271.042 166.141 271.469 164.767 273.115C168.409 276.604 172.042 276.817 175.665 273.756C180.012 275.336 179.798 276.405 175.024 276.962C179.799 277.984 184.5 279.266 189.129 280.808C210.068 281.45 231.01 281.023 251.958 280.808C251.958 281.235 254.793 281.001 254.793 281.428C220.47 285.01 183.87 283.75 150.662 275.038C154.975 269.452 159.25 263.895 163.484 258.369C164.393 259.529 165.676 259.956 167.331 259.652C200.789 267.368 234.554 268.009 268.627 261.575C275.547 260.181 281.449 258.6 289.143 256.446C305.171 251.958 334.872 230.584 349.408 207.08C351.39 203.875 352.613 202.592 355.819 201.951C359.354 200.949 362.559 202.231 365.436 204.516C366.03 203.754 366.245 202.899 366.077 201.951Z" fill="#F2B02F"/>
<path fill-rule="evenodd" clip-rule="evenodd" d="M273.756 246.829C247.256 248.539 220.758 248.539 194.258 246.829C188.71 240.164 189.138 233.967 195.54 228.237C220.329 227.382 245.12 227.382 269.909 228.237C272.585 229.253 274.937 230.749 276.962 232.725C278.485 238.163 277.417 242.865 273.756 246.829Z" fill="#387B3D"/>
<path fill-rule="evenodd" clip-rule="evenodd" d="M431.47 253.241C437.026 247.256 442.583 241.274 448.139 235.289C459.274 232.969 462.908 237.242 459.038 248.112C453.989 255.027 448.219 261.224 441.728 266.704C432.315 266.899 428.896 262.411 431.47 253.241Z" fill="#F2B02F"/>
<path fill-rule="evenodd" clip-rule="evenodd" d="M254.523 281.45C253.667 281.45 252.813 281.45 251.958 281.45C231.01 281.664 210.068 281.45 189.129 280.808C184.5 279.266 179.799 277.984 175.024 276.962C179.798 276.405 180.012 275.336 175.665 273.756C173.101 277.603 164.766 276.962 164.766 272.474C166.141 270.828 167.85 270.401 169.895 271.192C171.392 268.841 173.315 267.559 175.665 266.063C176.092 267.345 176.521 268.627 176.948 269.909C177.589 267.559 179.085 266.063 181.435 265.422C211.252 268.346 241.171 267.705 271.192 263.498C280.622 265.033 281.049 267.812 272.474 271.833C273.06 272.364 273.488 273.005 273.756 273.756C267.197 276.541 260.786 279.106 254.523 281.45Z" fill="#F2B02F"/>
<path fill-rule="evenodd" clip-rule="evenodd" d="M410.955 357.101C410.634 359.889 409.352 362.026 407.108 363.512C404.223 363.103 401.658 363.744 399.415 365.436C306.667 366.077 213.919 366.291 121.171 366.077C114.639 361.197 113.357 355.212 117.324 348.126C209.218 348.126 301.11 348.126 393.003 348.126C394.069 327.402 394.71 306.459 394.927 285.296C397.384 282.077 400.375 279.512 403.902 277.603C406.492 278.285 407.561 279.994 407.108 282.732C408.39 282.732 409.672 282.732 410.955 282.732C410.955 307.521 410.955 332.312 410.955 357.101Z" fill="#387B3D"/>
<path fill-rule="evenodd" clip-rule="evenodd" d="M319.916 310.941C322.267 313.5 322.908 316.492 321.84 319.917C319.703 323.117 317.352 326.108 314.787 328.892C303.824 326.847 292.925 324.283 282.091 321.199C259.467 325.747 236.6 327.457 213.491 326.328C195.519 325.739 177.997 322.748 160.92 317.352C157.122 310.997 157.55 305.013 162.202 299.401C190.832 306.821 219.895 309.386 249.394 307.094C247.338 303.448 246.697 299.601 247.47 295.554C248.776 291.473 251.554 289.764 255.805 290.425C269.378 295.45 283.055 300.365 296.836 305.171C304.58 307.107 312.273 309.03 319.916 310.941Z" fill="#387B3D"/>
<path fill-rule="evenodd" clip-rule="evenodd" d="M71.1637 269.91C72.646 300.162 72.8588 330.509 71.8048 360.948C66.0232 367.715 60.4673 367.715 55.1358 360.948C54.2806 330.601 54.2806 300.256 55.1358 269.91C60.4763 264.841 65.8181 264.841 71.1637 269.91Z" fill="#F2B02F"/>
<path fill-rule="evenodd" clip-rule="evenodd" d="M160.92 298.119C161.775 298.119 162.202 298.546 162.202 299.401C157.55 305.013 157.122 310.997 160.92 317.352C145.824 313.603 130.866 309.329 116.042 304.53C115.133 303.371 113.851 302.944 112.195 303.247C110.708 318.411 110.495 333.798 111.554 349.408C113.689 353.335 113.048 356.968 109.631 360.307C106.275 361.361 102.855 362.002 99.3729 362.23C97.2752 360.629 95.7788 358.491 94.8851 355.819C94.244 333.17 94.0299 310.518 94.244 287.861C94.3171 286.439 94.7441 285.156 95.5262 284.014C98.6036 280.501 102.45 279.433 107.066 280.808C124.657 287.679 142.608 293.449 160.92 298.119Z" fill="#F2B02F"/>
<path fill-rule="evenodd" clip-rule="evenodd" d="M393.003 285.296C393.003 292.563 393.003 299.828 393.003 307.094C377.3 316.456 360.631 323.294 342.996 327.61C333.637 328.7 324.235 329.127 314.787 328.892C317.352 326.108 319.703 323.117 321.84 319.916C322.908 316.492 322.267 313.5 319.916 310.941C326.769 311.154 333.607 310.94 340.432 310.3C359.353 304.684 376.877 296.349 393.003 285.296Z" fill="#F2B02F"/>
<path fill-rule="evenodd" clip-rule="evenodd" d="M410.955 278.885C412.641 305.121 412.641 331.192 410.955 357.101C410.955 332.312 410.955 307.521 410.955 282.732C409.672 282.732 408.39 282.732 407.108 282.732C407.561 279.994 406.492 278.285 403.902 277.603C400.375 279.512 397.384 282.077 394.927 285.296C394.71 306.46 394.069 327.402 393.003 348.126C393.003 335.303 393.003 322.481 393.003 309.659C393.003 308.803 393.003 307.949 393.003 307.094C393.003 299.828 393.003 292.563 393.003 285.296C395.904 274.544 401.887 272.406 410.955 278.885Z" fill="#387B3D"/>
<path fill-rule="evenodd" clip-rule="evenodd" d="M112.195 303.247C113.85 302.944 115.133 303.371 116.042 304.53C113.506 318.571 112.652 333.103 113.477 348.126C112.201 333.395 111.775 318.435 112.195 303.247Z" fill="#F2B02F"/>
<path fill-rule="evenodd" clip-rule="evenodd" d="M112.195 303.248C111.775 318.436 112.202 333.395 113.477 348.126C114.76 348.126 116.042 348.126 117.324 348.126C113.357 355.212 114.639 361.197 121.171 366.077C121.171 366.504 121.171 366.932 121.171 367.359C115.598 367.572 110.042 367.358 104.502 366.718C102.163 365.872 96.8084 361.589 95.5261 357.101C99.0087 356.873 106.275 361.361 109.631 360.307C113.048 356.968 113.689 353.335 111.554 349.408C110.495 333.798 110.708 318.411 112.195 303.248Z" fill="#F2B02F"/>
<path fill-rule="evenodd" clip-rule="evenodd" d="M407.108 363.512C406.022 365.392 404.313 366.461 401.979 366.718C308.378 367.359 214.775 367.573 121.171 367.359C121.171 366.932 121.171 366.504 121.171 366.077C213.919 366.291 306.667 366.077 399.415 365.436C401.658 363.744 404.223 363.103 407.108 363.512Z" fill="#387B3D"/>
</g>
</g>
<defs>
<clipPath id="clip0_132_372">
<rect width="461.603" height="368" fill="white"/>
</clipPath>
</defs>
</svg>
